
            <svg id="trend-chart" width="660" height="400" title="Stack Overflow Trends Chart" version="1.1" xmlns="http://www.w3.org/2000/svg"><g></g><g class="chart-area" transform="translate(100, 20)"><g transform="translate(0,300)" fill="none" font-size="10" font-family="sans-serif" text-anchor="middle"><path class="domain" stroke="#000" d="M0.5,6V0.5H410.5V6"></path><g class="tick" opacity="1" transform="translate(13.739109014770683,0)"><line stroke="#000" y2="6" x1="0.5" x2="0.5"></line><text fill="#000" y="9" x="0.5" dy="0.71em" style="font-size: 12px;">2009</text></g><g class="tick" opacity="1" transform="translate(46.50649125528013,0)"><line stroke="#000" y2="6" x1="0.5" x2="0.5"></line><text fill="#000" y="9" x="0.5" dy="0.71em" style="font-size: 12px;">2010</text></g><g class="tick" opacity="1" transform="translate(79.27387349578957,0)"><line stroke="#000" y2="6" x1="0.5" x2="0.5"></line><text fill="#000" y="9" x="0.5" dy="0.71em" style="font-size: 12px;">2011</text></g><g class="tick" opacity="1" transform="translate(112.04125573629902,0)"><line stroke="#000" y2="6" x1="0.5" x2="0.5"></line><text fill="#000" y="9" x="0.5" dy="0.71em" style="font-size: 12px;">2012</text></g><g class="tick" opacity="1" transform="translate(144.8984116267825,0)"><line stroke="#000" y2="6" x1="0.5" x2="0.5"></line><text fill="#000" y="9" x="0.5" dy="0.71em" style="font-size: 12px;">2013</text></g><g class="tick" opacity="1" transform="translate(177.6657938672919,0)"><line stroke="#000" y2="6" x1="0.5" x2="0.5"></line><text fill="#000" y="9" x="0.5" dy="0.71em" style="font-size: 12px;">2014</text></g><g class="tick" opacity="1" transform="translate(210.43317610780133,0)"><line stroke="#000" y2="6" x1="0.5" x2="0.5"></line><text fill="#000" y="9" x="0.5" dy="0.71em" style="font-size: 12px;">2015</text></g><g class="tick" opacity="1" transform="translate(243.2005583483108,0)"><line stroke="#000" y2="6" x1="0.5" x2="0.5"></line><text fill="#000" y="9" x="0.5" dy="0.71em" style="font-size: 12px;">2016</text></g><g class="tick" opacity="1" transform="translate(276.05771423879423,0)"><line stroke="#000" y2="6" x1="0.5" x2="0.5"></line><text fill="#000" y="9" x="0.5" dy="0.71em" style="font-size: 12px;">2017</text></g><g class="tick" opacity="1" transform="translate(308.82509647930374,0)"><line stroke="#000" y2="6" x1="0.5" x2="0.5"></line><text fill="#000" y="9" x="0.5" dy="0.71em" style="font-size: 12px;">2018</text></g><g class="tick" opacity="1" transform="translate(341.5924787198132,0)"><line stroke="#000" y2="6" x1="0.5" x2="0.5"></line><text fill="#000" y="9" x="0.5" dy="0.71em" style="font-size: 12px;">2019</text></g><g class="tick" opacity="1" transform="translate(374.35986096032264,0)"><line stroke="#000" y2="6" x1="0.5" x2="0.5"></line><text fill="#000" y="9" x="0.5" dy="0.71em" style="font-size: 12px;">2020</text></g><g class="tick" opacity="1" transform="translate(407.21701685080603,0)"><line stroke="#000" y2="6" x1="0.5" x2="0.5"></line><text fill="#000" y="9" x="0.5" dy="0.71em" style="font-size: 12px;">2021</text></g></g><g class="grid-lines" transform="translate(0,300)" fill="none" font-size="10" font-family="sans-serif" text-anchor="middle"><path class="domain" stroke="#000" d="M0.5,-300V0.5H410.5V-300"></path><g class="tick" opacity="1" transform="translate(13.739109014770683,0)"><line stroke="#000" y2="-300" x1="0.5" x2="0.5" style="stroke: #ccc; fill: none;"></line></g><g class="tick" opacity="1" transform="translate(46.50649125528013,0)"><line stroke="#000" y2="-300" x1="0.5" x2="0.5" style="stroke: #ccc; fill: none;"></line></g><g class="tick" opacity="1" transform="translate(79.27387349578957,0)"><line stroke="#000" y2="-300" x1="0.5" x2="0.5" style="stroke: #ccc; fill: none;"></line></g><g class="tick" opacity="1" transform="translate(112.04125573629902,0)"><line stroke="#000" y2="-300" x1="0.5" x2="0.5" style="stroke: #ccc; fill: none;"></line></g><g class="tick" opacity="1" transform="translate(144.8984116267825,0)"><line stroke="#000" y2="-300" x1="0.5" x2="0.5" style="stroke: #ccc; fill: none;"></line></g><g class="tick" opacity="1" transform="translate(177.6657938672919,0)"><line stroke="#000" y2="-300" x1="0.5" x2="0.5" style="stroke: #ccc; fill: none;"></line></g><g class="tick" opacity="1" transform="translate(210.43317610780133,0)"><line stroke="#000" y2="-300" x1="0.5" x2="0.5" style="stroke: #ccc; fill: none;"></line></g><g class="tick" opacity="1" transform="translate(243.2005583483108,0)"><line stroke="#000" y2="-300" x1="0.5" x2="0.5" style="stroke: #ccc; fill: none;"></line></g><g class="tick" opacity="1" transform="translate(276.05771423879423,0)"><line stroke="#000" y2="-300" x1="0.5" x2="0.5" style="stroke: #ccc; fill: none;"></line></g><g class="tick" opacity="1" transform="translate(308.82509647930374,0)"><line stroke="#000" y2="-300" x1="0.5" x2="0.5" style="stroke: #ccc; fill: none;"></line></g><g class="tick" opacity="1" transform="translate(341.5924787198132,0)"><line stroke="#000" y2="-300" x1="0.5" x2="0.5" style="stroke: #ccc; fill: none;"></line></g><g class="tick" opacity="1" transform="translate(374.35986096032264,0)"><line stroke="#000" y2="-300" x1="0.5" x2="0.5" style="stroke: #ccc; fill: none;"></line></g><g class="tick" opacity="1" transform="translate(407.21701685080603,0)"><line stroke="#000" y2="-300" x1="0.5" x2="0.5" style="stroke: #ccc; fill: none;"></line></g></g><text x="205" y="360" class="axis-label x-axis-label" style="text-anchor: middle; font-weight: bold;">Year</text><g fill="none" font-size="10" font-family="sans-serif" text-anchor="end"><path class="domain" stroke="#000" d="M-6,300.5H0.5V0.5H-6"></path><g class="tick" opacity="1" transform="translate(0,300)"><line stroke="#000" x2="-6" y1="0.5" y2="0.5"></line><text fill="#000" x="-9" y="0.5" dy="0.32em" style="font-size: 12px;">0.00%</text></g><g class="tick" opacity="1" transform="translate(0,262.5)"><line stroke="#000" x2="-6" y1="0.5" y2="0.5"></line><text fill="#000" x="-9" y="0.5" dy="0.32em" style="font-size: 12px;">0.05%</text></g><g class="tick" opacity="1" transform="translate(0,225)"><line stroke="#000" x2="-6" y1="0.5" y2="0.5"></line><text fill="#000" x="-9" y="0.5" dy="0.32em" style="font-size: 12px;">0.10%</text></g><g class="tick" opacity="1" transform="translate(0,187.5)"><line stroke="#000" x2="-6" y1="0.5" y2="0.5"></line><text fill="#000" x="-9" y="0.5" dy="0.32em" style="font-size: 12px;">0.15%</text></g><g class="tick" opacity="1" transform="translate(0,150)"><line stroke="#000" x2="-6" y1="0.5" y2="0.5"></line><text fill="#000" x="-9" y="0.5" dy="0.32em" style="font-size: 12px;">0.20%</text></g><g class="tick" opacity="1" transform="translate(0,112.5)"><line stroke="#000" x2="-6" y1="0.5" y2="0.5"></line><text fill="#000" x="-9" y="0.5" dy="0.32em" style="font-size: 12px;">0.25%</text></g><g class="tick" opacity="1" transform="translate(0,75)"><line stroke="#000" x2="-6" y1="0.5" y2="0.5"></line><text fill="#000" x="-9" y="0.5" dy="0.32em" style="font-size: 12px;">0.30%</text></g><g class="tick" opacity="1" transform="translate(0,37.5)"><line stroke="#000" x2="-6" y1="0.5" y2="0.5"></line><text fill="#000" x="-9" y="0.5" dy="0.32em" style="font-size: 12px;">0.35%</text></g><g class="tick" opacity="1" transform="translate(0,0)"><line stroke="#000" x2="-6" y1="0.5" y2="0.5"></line><text fill="#000" x="-9" y="0.5" dy="0.32em" style="font-size: 12px;">0.40%</text></g></g><g class="grid-lines" fill="none" font-size="10" font-family="sans-serif" text-anchor="end"><path class="domain" stroke="#000" d="M410,300.5H0.5V0.5H410"></path><g class="tick" opacity="1" transform="translate(0,300)"><line stroke="#000" x2="410" y1="0.5" y2="0.5" style="stroke: #ccc; fill: none;"></line></g><g class="tick" opacity="1" transform="translate(0,262.5)"><line stroke="#000" x2="410" y1="0.5" y2="0.5" style="stroke: #ccc; fill: none;"></line></g><g class="tick" opacity="1" transform="translate(0,225)"><line stroke="#000" x2="410" y1="0.5" y2="0.5" style="stroke: #ccc; fill: none;"></line></g><g class="tick" opacity="1" transform="translate(0,187.5)"><line stroke="#000" x2="410" y1="0.5" y2="0.5" style="stroke: #ccc; fill: none;"></line></g><g class="tick" opacity="1" transform="translate(0,150)"><line stroke="#000" x2="410" y1="0.5" y2="0.5" style="stroke: #ccc; fill: none;"></line></g><g class="tick" opacity="1" transform="translate(0,112.5)"><line stroke="#000" x2="410" y1="0.5" y2="0.5" style="stroke: #ccc; fill: none;"></line></g><g class="tick" opacity="1" transform="translate(0,75)"><line stroke="#000" x2="410" y1="0.5" y2="0.5" style="stroke: #ccc; fill: none;"></line></g><g class="tick" opacity="1" transform="translate(0,37.5)"><line stroke="#000" x2="410" y1="0.5" y2="0.5" style="stroke: #ccc; fill: none;"></line></g><g class="tick" opacity="1" transform="translate(0,0)"><line stroke="#000" x2="410" y1="0.5" y2="0.5" style="stroke: #ccc; fill: none;"></line></g></g><g class="lines"><path class="line" d="M2.782983149193953,294.60703242975L5.476192648413908,294.80681346075L8.262916366356778,282.0859872615L10.956125865576732,287.45399799300003L13.739109014770683,285.6979405035L16.52209216396464,300L19.035754363236595,285.19103564025L21.81499694368163,271.592254155L24.50820644290159,285.32117274075L27.29118959209554,286.61574702L29.984399091315495,283.65249883275L32.76738224050945,274.5590230665L35.5503653897034,261.028243062L38.243574888923355,275.0117999835L41.030298606866225,276.4027267965L43.72350810608618,257.9428022115L46.50649125528013,266.37977407275L49.289474404474085,247.7257908585L51.80313660374604,253.74296507625002L54.58237918419108,272.8446715215L57.27558868341104,249.15648182249998L60.05857183260499,241.77334031475002L62.751781331824944,257.82405186825L65.5347644810189,243.1279620855L68.31774763021285,255.61327656225L71.0109571294328,246.80264174175L73.79768084737567,244.7693307345L76.49089034659562,226.28140267725001L79.27387349578957,233.09881273949998L82.05685664498353,228.203574675L84.57051884425549,238.042439685L87.34976142470053,237.799846731L90.04297092392048,239.990398464L92.82595407311443,227.88461538525002L95.51916357233439,235.75697211225L98.30214672152835,217.2626560095L101.08512987072228,204.9989689815L103.77833936994226,216.2524580775L106.56506308788512,216.57857241375L109.25827258710508,209.478888063L112.04125573629902,179.75589153075L114.82423888549299,189.59526351600002L117.42767473473893,187.62277212150002L120.20691731518396,192.77472591525003L122.90012681440392,190.455466794L125.68310996359789,182.17036440975L128.37631946281783,188.6705496495L131.15930261201177,188.7422013075L133.94228576120574,191.85702360224997L136.6354952604257,196.51292081399998L139.42221897836856,191.658923982L142.11542847758852,180.97003856474998L144.8984116267825,165.22223992425L147.68139477597643,145.02404177325L150.19505697524838,180.40143518325002L152.97429955569342,177.13622082749998L155.66750905491338,179.1137413395L158.45049220410735,188.03137651875L161.14370170332728,180.19033592025L163.92668485252122,175.6555275975L166.7096680017152,162.33962264175L169.40287750093515,180.74305623450002L172.189601218878,172.05354764550003L174.88281071809797,185.82543978375L177.6657938672919,168.59517256049998L180.44877701648588,173.5278159015L182.96243921575783,166.0275793005L185.74168179620287,184.4275052265L188.43489129542283,173.69871402374997L191.21787444461677,174.54028855800004L193.91108394383673,136.1382253815L196.6940670930307,160.0104035985L199.47705024222464,158.06498273325L202.17025974144457,163.15057780875L204.95698345938746,171.591543966L207.65019295860742,190.23210831749998L210.43317610780133,154.62658808775004L213.2161592569953,151.19490934725002L215.7298214562673,158.54140470674997L218.50906403671232,170.29368366L221.20227353593225,150.80677856174998L223.98525668512622,144.88480592624998L226.67846618434618,143.15347580174998L229.46144933354014,118.56077591249999L232.2444324827341,147.85814785350004L234.93764198195404,139.08442542150001L237.72436569989694,135.4984945365L240.41757519911687,137.88838331175L243.2005583483108,112.20018655124997L245.98354149750477,124.99185698250002L248.5869773467507,145.44724249950002L251.36621992719577,143.12913272325L254.05942942641573,136.22453045775L256.84241257560967,135.7158854415L259.53562207482963,127.50768530175L262.31860522402354,105.82874122724999L265.1015883732175,102.66635343899998L267.79479787243747,118.94262492975L270.58152159038036,121.85478073349998L273.2747310896003,128.12587334475L276.05771423879423,132.78974557875L278.8406973879882,131.2463314425L281.35435958726015,99.3147944385L284.1336021677052,112.53914250449998L286.82681166692515,107.52606839925002L289.6097948161191,112.18520884350002L292.303004315339,109.05971019750001L295.085987464533,110.7986795685L297.86897061372696,113.49314898224998L300.5621801129469,118.68385812374999L303.3489038308898,118.84922291550001L306.04211333010977,127.89578769375001L308.82509647930374,104.31912485925L311.60807962849765,99.50089220475002L314.1217418277696,90.49546292250002L316.9009844082147,133.35402184725L319.5941939074346,142.87425726524998L322.37717705662857,103.89080640149999L325.0703865558485,134.90312418975L327.85336970504244,137.2491122685L330.6363528542364,116.81914292325001L333.32956235345637,130.59461290874998L336.11628607139926,140.76647092874998L338.8094955706192,109.42309594274997L341.5924787198132,115.07430711825L344.3754618690071,129.91794829575L346.88912406827905,108.93986600849999L349.6683666487241,126.45716982675L352.36157614794405,116.56985631375L355.144559297138,115.94003636849999L357.837768796358,125.90390294550002L360.62075194555194,121.59507220650002L363.40373509474585,104.9027820645L366.0969445939658,95.89545091275002L368.8836683119087,95.02624208025L371.57687781112867,70.2219857085L374.35986096032264,64.79670612525001L377.14284410951655,82.20038257949997L379.74627995876256,64.39464120299999L382.52552253920754,68.67905245125004L385.2187320384275,56.66225666250003L388.00171518762147,38.65802796524997L390.69492468684143,56.327080209749994L393.4779078360354,67.02734921324998L396.2608909852293,59.49261850200003L398.95410048444927,34.775460964499985L401.7408242023921,57.11985788100003L404.43403370161207,25.469636847749996L407.21701685080603,17.49070147650002L410,27.405115136250004" data-legend="github" style="stroke: rgb(31, 119, 180); fill: none;"></path><path class="line" d="M2.782983149193953,300L5.476192648413908,300L8.262916366356778,300L10.956125865576732,300L13.739109014770683,300L16.52209216396464,300L19.035754363236595,300L21.81499694368163,300L24.50820644290159,300L27.29118959209554,300L29.984399091315495,300L32.76738224050945,300L35.5503653897034,300L38.243574888923355,300L41.030298606866225,300L43.72350810608618,300L46.50649125528013,300L49.289474404474085,300L51.80313660374604,300L54.58237918419108,300L57.27558868341104,300L60.05857183260499,300L62.751781331824944,300L65.5347644810189,300L68.31774763021285,300L71.0109571294328,300L73.79768084737567,300L76.49089034659562,300L79.27387349578957,300L82.05685664498353,300L84.57051884425549,300L87.34976142470053,300L90.04297092392048,300L92.82595407311443,300L95.51916357233439,300L98.30214672152835,300L101.08512987072228,300L103.77833936994226,300L106.56506308788512,300L109.25827258710508,300L112.04125573629902,300L114.82423888549299,299.393380569L117.42767473473893,300L120.20691731518396,297.6690157815L122.90012681440392,299.4410993205L125.68310996359789,299.42522129025L128.37631946281783,298.40957928075L131.15930261201177,296.273662245L133.94228576120574,296.01578508075L136.6354952604257,294.97635537975L139.42221897836856,295.93085160525L142.11542847758852,295.55028181575L144.8984116267825,292.830970209L147.68139477597643,295.57211547975L150.19505697524838,291.7667654655L152.97429955569342,287.71362208275L155.66750905491338,291.429705543L158.45049220410735,288.6133603245L161.14370170332728,280.03172265375L163.92668485252122,282.80342403L166.7096680017152,285.962264151L169.40287750093515,279.24196542L172.189601218878,284.27236299975L174.88281071809797,290.938526967L177.6657938672919,286.8992166L180.44877701648588,286.83412594575L182.96243921575783,280.86108275775L185.74168179620287,281.89364248575L188.43489129542283,283.41498264975L191.21787444461677,281.550042435L193.91108394383673,275.01848914125003L196.6940670930307,283.47663780225L199.47705024222464,281.01506138475L202.17025974144457,278.71231210425L204.95698345938746,281.076648585L207.65019295860742,286.94390715675L210.43317610780133,280.5263030775L213.2161592569953,275.8694447595L215.7298214562673,277.414173861L218.50906403671232,278.9772637125L221.20227353593225,278.51293278225L223.98525668512622,276.351947157L226.67846618434618,275.3361730995L229.46144933354014,275.08843605225L232.2444324827341,270.334457799L234.93764198195404,276.14568115575L237.72436569989694,271.66683582L240.41757519911687,278.58903175875L243.2005583483108,269.60224749075L245.98354149750477,274.369516812L248.5869773467507,265.94600258475L251.36621992719577,267.01492766325L254.05942942641573,259.35499296075L256.84241257560967,261.89919537675L259.53562207482963,260.29261072575L262.31860522402354,259.66892483775L265.1015883732175,252.42849591825L267.79479787243747,260.3398130805L270.58152159038036,256.86556434225L273.2747310896003,258.54526484475L276.05771423879423,263.649944691L278.8406973879882,256.84049397525L281.35435958726015,253.1109332805L284.1336021677052,245.835237564L286.82681166692515,246.9177157065L289.6097948161191,246.15693346125L292.303004315339,247.84890763125L295.085987464533,240.7680550905L297.86897061372696,247.77808171499998L300.5621801129469,251.11574606325001L303.3489038308898,239.6164076385L306.04211333010977,249.5646266055L308.82509647930374,244.83213881625L311.60807962849765,234.81309795825L314.1217418277696,235.267909212L316.9009844082147,232.038232374L319.5941939074346,226.85525769225L322.37717705662857,207.33840602475L325.0703865558485,224.56780674225L327.85336970504244,226.49959908900001L330.6363528542364,222.017292273L333.32956235345637,221.88529373025L336.11628607139926,213.32858544225002L338.8094955706192,221.25864443174999L341.5924787198132,223.70552015024998L344.3754618690071,211.351173051L346.88912406827905,207.74792549925002L349.6683666487241,215.44088728125L352.36157614794405,228.22298725349998L355.144559297138,199.65405597225L357.837768796358,217.19211429525L360.62075194555194,221.25955347450002L363.40373509474585,209.064856047L366.0969445939658,208.84651205849997L368.8836683119087,211.78990019924998L371.57687781112867,204.78181541775L374.35986096032264,201.18373649025L377.14284410951655,190.32047905575L379.74627995876256,197.56288748025003L382.52552253920754,205.5553527765L385.2187320384275,208.53740853750003L388.00171518762147,217.296844293L390.69492468684143,203.98445389724998L393.4779078360354,189.53141835374998L396.2608909852293,185.9816858085L398.95410048444927,186.45906021225L401.7408242023921,190.35696441525L404.43403370161207,185.10221507925002L407.21701685080603,183.6203833125L410,186.68426322074998" data-legend="gitlab" style="stroke: rgb(255, 127, 14); fill: none;"></path><path class="line" d="M2.782983149193953,294.60703242975L5.476192648413908,300L8.262916366356778,300L10.956125865576732,300L13.739109014770683,300L16.52209216396464,300L19.035754363236595,300L21.81499694368163,292.89806353875L24.50820644290159,300L27.29118959209554,300L29.984399091315495,297.6646426905L32.76738224050945,297.68718391575L35.5503653897034,300L38.243574888923355,297.917649999L41.030298606866225,300L43.72350810608618,295.994552592L46.50649125528013,296.6379774075L49.289474404474085,298.31373518925L51.80313660374604,292.77233829375L54.58237918419108,293.96548256025L57.27558868341104,295.64198415675L60.05857183260499,294.5835665415L62.751781331824944,293.79765468675L65.5347644810189,295.26066350775L68.31774763021285,293.83517730075L71.0109571294328,291.72485538225L73.79768084737567,294.585228504L76.49089034659562,291.327223845L79.27387349578957,295.288648785L82.05685664498353,296.36473795875L84.57051884425549,297.0140934795L87.34976142470053,294.4885940145L90.04297092392048,294.74915986575L92.82595407311443,292.40890688325L95.51916357233439,296.26494023925L98.30214672152835,293.68952461125L101.08512987072228,295.58134739475L103.77833936994226,289.62419834625L106.56506308788512,291.72680057025L109.25827258710508,291.30997325475L112.04125573629902,287.7169996725L114.82423888549299,292.113947394L117.42767473473893,292.69548018825L120.20691731518396,290.67606312375L122.90012681440392,292.1753904855L125.68310996359789,290.22876192675L128.37631946281783,291.517756164L131.15930261201177,287.75631880425L133.94228576120574,289.18570236075L136.6354952604257,281.91487936575L139.42221897836856,281.6888322225L142.11542847758852,281.64491248950003L144.8984116267825,284.70606977925L147.68139477597643,283.2724362555L150.19505697524838,284.8335153315L152.97429955569342,281.5704331245L155.66750905491338,286.91902425L158.45049220410735,281.49671052675L161.14370170332728,278.33229479475L163.92668485252122,278.83498342125L166.7096680017152,277.35849056625L169.40287750093515,279.24196542L172.189601218878,276.6210801345L174.88281071809797,281.877053934L177.6657938672919,276.577387254L180.44877701648588,278.0568765765L182.96243921575783,280.86108275775L185.74168179620287,281.50840083675L188.43489129542283,281.288698374L191.21787444461677,276.0150551655L193.91108394383673,277.98239720925L196.6940670930307,276.13292126925L199.47705024222464,274.6867485135L202.17025974144457,277.843426884L204.95698345938746,278.37331266825L207.65019295860742,282.10831721475L210.43317610780133,278.714796387L213.2161592569953,274.975720491L215.7298214562673,272.6592630945L218.50906403671232,281.357196123L221.20227353593225,271.21543825575L223.98525668512622,273.54624597225L226.67846618434618,278.8045237575L229.46144933354014,270.936508728L232.2444324827341,276.2675662395L234.93764198195404,268.059471378L237.72436569989694,277.5871984845L240.41757519911687,268.97594397675L243.2005583483108,265.43817180450003L245.98354149750477,271.9666590135L248.5869773467507,274.17883712475L251.36621992719577,275.069422071L254.05942942641573,273.301809102L256.84241257560967,266.81542823175L259.53562207482963,261.57349425075L262.31860522402354,265.48990475774997L265.1015883732175,269.1666177255L267.79479787243747,265.94396992725L270.58152159038036,273.25664989275L273.2747310896003,267.8609356665L276.05771423879423,268.35406949625L278.8406973879882,265.47239518050003L281.35435958726015,262.1136340905L284.1336021677052,265.30069906425L286.82681166692515,259.47917229525L289.6097948161191,260.147651538L292.303004315339,256.26037414275L295.085987464533,262.07451009375L297.86897061372696,259.90102703175L300.5621801129469,262.6702060845L303.3489038308898,269.584560885L306.04211333010977,256.32400654500003L308.82509647930374,258.034703886L311.60807962849765,256.0482251385L314.1217418277696,262.38540670425L316.9009844082147,269.74304865975L319.5941939074346,253.0428814815L322.37717705662857,258.81706934475L325.0703865558485,258.251364738L327.85336970504244,240.340583676L330.6363528542364,260.223585321L333.32956235345637,268.47177518025L336.11628607139926,270.2696891925L338.8094955706192,256.06460595149997L341.5924787198132,260.58960643575L344.3754618690071,266.49898981575L346.88912406827905,262.53722862975L349.6683666487241,261.161802879L352.36157614794405,254.64091555574998L355.144559297138,260.63777886225L357.837768796358,264.58216936725L360.62075194555194,269.164580382L363.40373509474585,268.5860411805L366.0969445939658,262.8450456765L368.8836683119087,268.8970168335L371.57687781112867,269.7810551925L374.35986096032264,263.4585692235L377.14284410951655,269.33131878825003L379.74627995876256,263.033563743L382.52552253920754,263.3855896635L385.2187320384275,267.9374679375L388.00171518762147,266.55116813625L390.69492468684143,268.63237139325L393.4779078360354,263.4636986775L396.2608909852293,267.48696509399997L398.95410048444927,270.727726461L401.7408242023921,264.84020799825L404.43403370161207,274.10090913675003L407.21701685080603,264.90843618975L410,279.06616910925" data-legend="bitbucket" style="stroke: rgb(44, 160, 44); fill: none;"></path></g></g><g transform="translate(20, 150)"><text transform="rotate(-90)" x="-50" y="0" dy="1em" class="axis-label y-axis-label" style="text-anchor: middle; font-weight: bold;">% of Stack Overflow questions that month</text></g><g class="legend" transform="translate(530, 30)" style="font-size: 12px;"><text class="legend-title" style="font-weight: bold;">Tag</text><g class="legend-items" transform="translate(0,20)"><text y="0em" x="1em">github</text><text y="1em" x="1em">gitlab</text><text y="2em" x="1em">bitbucket</text><circle cy="-0.25em" cx="0" r="0.4em" style="fill: rgb(31, 119, 180);"></circle><circle cy="0.75em" cx="0" r="0.4em" style="fill: rgb(255, 127, 14);"></circle><circle cy="1.75em" cx="0" r="0.4em" style="fill: rgb(44, 160, 44);"></circle></g><rect class="legend-box"></rect></g></svg>
        