
            <svg id="trend-chart" width="660" height="400" title="Stack Overflow Trends Chart" version="1.1" xmlns="http://www.w3.org/2000/svg"><g></g><g class="chart-area" transform="translate(100, 20)"><g transform="translate(0,300)" fill="none" font-size="10" font-family="sans-serif" text-anchor="middle"><path class="domain" stroke="#000" d="M0.5,6V0.5H410.5V6"></path><g class="tick" opacity="1" transform="translate(13.739109014770683,0)"><line stroke="#000" y2="6" x1="0.5" x2="0.5"></line><text fill="#000" y="9" x="0.5" dy="0.71em" style="font-size: 12px;">2009</text></g><g class="tick" opacity="1" transform="translate(46.50649125528013,0)"><line stroke="#000" y2="6" x1="0.5" x2="0.5"></line><text fill="#000" y="9" x="0.5" dy="0.71em" style="font-size: 12px;">2010</text></g><g class="tick" opacity="1" transform="translate(79.27387349578957,0)"><line stroke="#000" y2="6" x1="0.5" x2="0.5"></line><text fill="#000" y="9" x="0.5" dy="0.71em" style="font-size: 12px;">2011</text></g><g class="tick" opacity="1" transform="translate(112.04125573629902,0)"><line stroke="#000" y2="6" x1="0.5" x2="0.5"></line><text fill="#000" y="9" x="0.5" dy="0.71em" style="font-size: 12px;">2012</text></g><g class="tick" opacity="1" transform="translate(144.8984116267825,0)"><line stroke="#000" y2="6" x1="0.5" x2="0.5"></line><text fill="#000" y="9" x="0.5" dy="0.71em" style="font-size: 12px;">2013</text></g><g class="tick" opacity="1" transform="translate(177.6657938672919,0)"><line stroke="#000" y2="6" x1="0.5" x2="0.5"></line><text fill="#000" y="9" x="0.5" dy="0.71em" style="font-size: 12px;">2014</text></g><g class="tick" opacity="1" transform="translate(210.43317610780133,0)"><line stroke="#000" y2="6" x1="0.5" x2="0.5"></line><text fill="#000" y="9" x="0.5" dy="0.71em" style="font-size: 12px;">2015</text></g><g class="tick" opacity="1" transform="translate(243.2005583483108,0)"><line stroke="#000" y2="6" x1="0.5" x2="0.5"></line><text fill="#000" y="9" x="0.5" dy="0.71em" style="font-size: 12px;">2016</text></g><g class="tick" opacity="1" transform="translate(276.05771423879423,0)"><line stroke="#000" y2="6" x1="0.5" x2="0.5"></line><text fill="#000" y="9" x="0.5" dy="0.71em" style="font-size: 12px;">2017</text></g><g class="tick" opacity="1" transform="translate(308.82509647930374,0)"><line stroke="#000" y2="6" x1="0.5" x2="0.5"></line><text fill="#000" y="9" x="0.5" dy="0.71em" style="font-size: 12px;">2018</text></g><g class="tick" opacity="1" transform="translate(341.5924787198132,0)"><line stroke="#000" y2="6" x1="0.5" x2="0.5"></line><text fill="#000" y="9" x="0.5" dy="0.71em" style="font-size: 12px;">2019</text></g><g class="tick" opacity="1" transform="translate(374.35986096032264,0)"><line stroke="#000" y2="6" x1="0.5" x2="0.5"></line><text fill="#000" y="9" x="0.5" dy="0.71em" style="font-size: 12px;">2020</text></g><g class="tick" opacity="1" transform="translate(407.21701685080603,0)"><line stroke="#000" y2="6" x1="0.5" x2="0.5"></line><text fill="#000" y="9" x="0.5" dy="0.71em" style="font-size: 12px;">2021</text></g></g><g class="grid-lines" transform="translate(0,300)" fill="none" font-size="10" font-family="sans-serif" text-anchor="middle"><path class="domain" stroke="#000" d="M0.5,-300V0.5H410.5V-300"></path><g class="tick" opacity="1" transform="translate(13.739109014770683,0)"><line stroke="#000" y2="-300" x1="0.5" x2="0.5" style="stroke: #ccc; fill: none;"></line></g><g class="tick" opacity="1" transform="translate(46.50649125528013,0)"><line stroke="#000" y2="-300" x1="0.5" x2="0.5" style="stroke: #ccc; fill: none;"></line></g><g class="tick" opacity="1" transform="translate(79.27387349578957,0)"><line stroke="#000" y2="-300" x1="0.5" x2="0.5" style="stroke: #ccc; fill: none;"></line></g><g class="tick" opacity="1" transform="translate(112.04125573629902,0)"><line stroke="#000" y2="-300" x1="0.5" x2="0.5" style="stroke: #ccc; fill: none;"></line></g><g class="tick" opacity="1" transform="translate(144.8984116267825,0)"><line stroke="#000" y2="-300" x1="0.5" x2="0.5" style="stroke: #ccc; fill: none;"></line></g><g class="tick" opacity="1" transform="translate(177.6657938672919,0)"><line stroke="#000" y2="-300" x1="0.5" x2="0.5" style="stroke: #ccc; fill: none;"></line></g><g class="tick" opacity="1" transform="translate(210.43317610780133,0)"><line stroke="#000" y2="-300" x1="0.5" x2="0.5" style="stroke: #ccc; fill: none;"></line></g><g class="tick" opacity="1" transform="translate(243.2005583483108,0)"><line stroke="#000" y2="-300" x1="0.5" x2="0.5" style="stroke: #ccc; fill: none;"></line></g><g class="tick" opacity="1" transform="translate(276.05771423879423,0)"><line stroke="#000" y2="-300" x1="0.5" x2="0.5" style="stroke: #ccc; fill: none;"></line></g><g class="tick" opacity="1" transform="translate(308.82509647930374,0)"><line stroke="#000" y2="-300" x1="0.5" x2="0.5" style="stroke: #ccc; fill: none;"></line></g><g class="tick" opacity="1" transform="translate(341.5924787198132,0)"><line stroke="#000" y2="-300" x1="0.5" x2="0.5" style="stroke: #ccc; fill: none;"></line></g><g class="tick" opacity="1" transform="translate(374.35986096032264,0)"><line stroke="#000" y2="-300" x1="0.5" x2="0.5" style="stroke: #ccc; fill: none;"></line></g><g class="tick" opacity="1" transform="translate(407.21701685080603,0)"><line stroke="#000" y2="-300" x1="0.5" x2="0.5" style="stroke: #ccc; fill: none;"></line></g></g><text x="205" y="360" class="axis-label x-axis-label" style="text-anchor: middle; font-weight: bold;">Year</text><g fill="none" font-size="10" font-family="sans-serif" text-anchor="end"><path class="domain" stroke="#000" d="M-6,300.5H0.5V0.5H-6"></path><g class="tick" opacity="1" transform="translate(0,300)"><line stroke="#000" x2="-6" y1="0.5" y2="0.5"></line><text fill="#000" x="-9" y="0.5" dy="0.32em" style="font-size: 12px;">0.00%</text></g><g class="tick" opacity="1" transform="translate(0,264.70588235294116)"><line stroke="#000" x2="-6" y1="0.5" y2="0.5"></line><text fill="#000" x="-9" y="0.5" dy="0.32em" style="font-size: 12px;">2.00%</text></g><g class="tick" opacity="1" transform="translate(0,229.41176470588235)"><line stroke="#000" x2="-6" y1="0.5" y2="0.5"></line><text fill="#000" x="-9" y="0.5" dy="0.32em" style="font-size: 12px;">4.00%</text></g><g class="tick" opacity="1" transform="translate(0,194.11764705882354)"><line stroke="#000" x2="-6" y1="0.5" y2="0.5"></line><text fill="#000" x="-9" y="0.5" dy="0.32em" style="font-size: 12px;">6.00%</text></g><g class="tick" opacity="1" transform="translate(0,158.8235294117647)"><line stroke="#000" x2="-6" y1="0.5" y2="0.5"></line><text fill="#000" x="-9" y="0.5" dy="0.32em" style="font-size: 12px;">8.00%</text></g><g class="tick" opacity="1" transform="translate(0,123.52941176470588)"><line stroke="#000" x2="-6" y1="0.5" y2="0.5"></line><text fill="#000" x="-9" y="0.5" dy="0.32em" style="font-size: 12px;">10.00%</text></g><g class="tick" opacity="1" transform="translate(0,88.23529411764707)"><line stroke="#000" x2="-6" y1="0.5" y2="0.5"></line><text fill="#000" x="-9" y="0.5" dy="0.32em" style="font-size: 12px;">12.00%</text></g><g class="tick" opacity="1" transform="translate(0,52.9411764705882)"><line stroke="#000" x2="-6" y1="0.5" y2="0.5"></line><text fill="#000" x="-9" y="0.5" dy="0.32em" style="font-size: 12px;">14.00%</text></g><g class="tick" opacity="1" transform="translate(0,17.64705882352939)"><line stroke="#000" x2="-6" y1="0.5" y2="0.5"></line><text fill="#000" x="-9" y="0.5" dy="0.32em" style="font-size: 12px;">16.00%</text></g></g><g class="grid-lines" fill="none" font-size="10" font-family="sans-serif" text-anchor="end"><path class="domain" stroke="#000" d="M410,300.5H0.5V0.5H410"></path><g class="tick" opacity="1" transform="translate(0,300)"><line stroke="#000" x2="410" y1="0.5" y2="0.5" style="stroke: #ccc; fill: none;"></line></g><g class="tick" opacity="1" transform="translate(0,264.70588235294116)"><line stroke="#000" x2="410" y1="0.5" y2="0.5" style="stroke: #ccc; fill: none;"></line></g><g class="tick" opacity="1" transform="translate(0,229.41176470588235)"><line stroke="#000" x2="410" y1="0.5" y2="0.5" style="stroke: #ccc; fill: none;"></line></g><g class="tick" opacity="1" transform="translate(0,194.11764705882354)"><line stroke="#000" x2="410" y1="0.5" y2="0.5" style="stroke: #ccc; fill: none;"></line></g><g class="tick" opacity="1" transform="translate(0,158.8235294117647)"><line stroke="#000" x2="410" y1="0.5" y2="0.5" style="stroke: #ccc; fill: none;"></line></g><g class="tick" opacity="1" transform="translate(0,123.52941176470588)"><line stroke="#000" x2="410" y1="0.5" y2="0.5" style="stroke: #ccc; fill: none;"></line></g><g class="tick" opacity="1" transform="translate(0,88.23529411764707)"><line stroke="#000" x2="410" y1="0.5" y2="0.5" style="stroke: #ccc; fill: none;"></line></g><g class="tick" opacity="1" transform="translate(0,52.9411764705882)"><line stroke="#000" x2="410" y1="0.5" y2="0.5" style="stroke: #ccc; fill: none;"></line></g><g class="tick" opacity="1" transform="translate(0,17.64705882352939)"><line stroke="#000" x2="410" y1="0.5" y2="0.5" style="stroke: #ccc; fill: none;"></line></g></g><g class="lines"><path class="line" d="M2.782983149193953,259.3941265296L5.476192648413908,262.9756347906882L8.262916366356778,263.6099662795059L10.956125865576732,272.3987955838235L13.739109014770683,263.99246197335884L16.52209216396464,266.3749797439765L19.035754363236595,262.4549197702588L21.81499694368163,261.73309530241767L24.50820644290159,266.8431196019471L27.29118959209554,268.38167060671765L29.984399091315495,270.2173256037706L32.76738224050945,271.1578229416941L35.5503653897034,269.03835504125294L38.243574888923355,261.9787387981941L41.030298606866225,255.3039884018647L43.72350810608618,259.8984030045706L46.50649125528013,261.1587507515118L49.289474404474085,258.894815430053L51.80313660374604,262.0420213417412L54.58237918419108,257.9358637287706L57.27558868341104,259.6328101056L60.05857183260499,263.2319752246059L62.751781331824944,262.4064905233059L65.5347644810189,261.83440200725295L68.31774763021285,260.0229379756059L71.0109571294328,259.8342560390118L73.79768084737567,257.29337869002353L76.49089034659562,262.5285053745706L79.27387349578957,267.58590363716473L82.05685664498353,264.9304132437706L84.57051884425549,262.95719498087647L87.34976142470053,262.1704503420882L90.04297092392048,267.77131399847644L92.82595407311443,268.45677542272944L95.51916357233439,270.84016873681765L98.30214672152835,269.94068978034704L101.08512987072228,266.7648011866412L103.77833936994226,262.69942901121175L106.56506308788512,264.2792448137118L109.25827258710508,265.8362674006588L112.04125573629902,266.0335111685471L114.82423888549299,265.62965669622355L117.42767473473893,263.7880909224353L120.20691731518396,263.3487010704706L122.90012681440392,267.3207484973294L125.68310996359789,268.73203816531765L128.37631946281783,270.38698990115296L131.15930261201177,270.94082826155295L133.94228576120574,266.0772558245471L136.6354952604257,262.7186467444059L139.42221897836856,261.72606891940586L142.11542847758852,266.36536548764116L144.8984116267825,267.29797861475294L147.68139477597643,264.17175792997057L150.19505697524838,264.89532321691763L152.97429955569342,263.52287967919415L155.66750905491338,266.03722320337056L158.45049220410735,267.07921528935884L161.14370170332728,269.7201942012882L163.92668485252122,268.72972550495297L166.7096680017152,263.74162042177056L169.40287750093515,259.34585615041766L172.189601218878,256.9927891243235L174.88281071809797,262.6134283212706L177.6657938672919,265.0552365769588L180.44877701648588,262.63801872605296L182.96243921575783,261.1443868805824L185.74168179620287,263.53347870792356L188.43489129542283,267.24021308871176L191.21787444461677,269.85059875538826L193.91108394383673,271.6759978573588L196.6940670930307,271.0139188627412L199.47705024222464,265.56121499354117L202.17025974144457,261.0330534160059L204.95698345938746,260.9553483115941L207.65019295860742,264.04596654910586L210.43317610780133,265.70924394105884L213.2161592569953,264.5244037545L215.7298214562673,263.4338038726765L218.50906403671232,263.05971577074706L221.20227353593225,266.31705467398234L223.98525668512622,270.0662334098294L226.67846618434618,274.4384823404294L229.46144933354014,274.75628186604706L232.2444324827341,269.20766577554116L234.93764198195404,264.96292869201176L237.72436569989694,263.9902647347471L240.41757519911687,268.2099813667235L243.2005583483108,270.0970376602412L245.98354149750477,269.102075598L248.5869773467507,269.5429147873765L251.36621992719577,269.6591482360941L254.05942942641573,274.4503704305647L256.84241257560967,277.7805554314941L259.53562207482963,276.3815124136941L262.31860522402354,278.29116900278825L265.1015883732175,273.9134039708647L267.79479787243747,267.3690994060941L270.58152159038036,266.78140990401175L273.2747310896003,269.31308435285297L276.05771423879423,272.1777431336647L278.8406973879882,272.2662091872L281.35435958726015,273.7509488140588L284.1336021677052,271.4838456583235L286.82681166692515,273.8187781461L289.6097948161191,276.4776376286118L292.303004315339,279.63435520007647L295.085987464533,279.43551095888824L297.86897061372696,276.8950924562118L300.5621801129469,270.82629551115883L303.3489038308898,268.8268060000235L306.04211333010977,273.0725877883412L308.82509647930374,275.3478154747412L311.60807962849765,274.99425789767645L314.1217418277696,274.48794068936473L316.9009844082147,275.89301361061763L319.5941939074346,274.73664528571766L322.37717705662857,278.7509920818176L325.0703865558485,282.0503193845118L327.85336970504244,280.9314467918647L330.6363528542364,277.1193255496412L333.32956235345637,272.4965371545882L336.11628607139926,269.54051108075294L338.8094955706192,270.0071290127647L341.5924787198132,272.40678025208825L344.3754618690071,274.70294760382944L346.88912406827905,273.3683769401294L349.6683666487241,271.4627454065118L352.36157614794405,274.86631726847645L355.144559297138,276.9761987378118L357.837768796358,279.0368697562941L360.62075194555194,279.5682954879706L363.40373509474585,273.53317236247057L366.0969445939658,270.8938287223765L368.8836683119087,269.6948368448118L371.57687781112867,270.9281006001353L374.35986096032264,275.02951772578234L377.14284410951655,275.55067049137057L379.74627995876256,272.97336949461175L382.52552253920754,272.2141110340588L385.2187320384275,271.6579128343941L388.00171518762147,276.40635725285296L390.69492468684143,279.955320255847L393.4779078360354,279.55989896934705L396.2608909852293,276.0330988459235L398.95410048444927,273.61842869636473L401.7408242023921,268.3453018136294L404.43403370161207,268.9210909638882L407.21701685080603,270.91293459887646L410,273.8514501094941" data-legend="c" style="stroke: rgb(31, 119, 180); fill: none;"></path><path class="line" d="M2.782983149193953,204.44930398995882L5.476192648413908,200.9017815684706L8.262916366356778,196.8714874485L10.956125865576732,206.5691850510706L13.739109014770683,204.31641764258825L16.52209216396464,214.5195268189941L19.035754363236595,208.35864407961176L21.81499694368163,214.8603146575765L24.50820644290159,215.93349282407647L27.29118959209554,221.0801459566059L29.984399091315495,219.38896062862943L32.76738224050945,223.81311720446473L35.5503653897034,221.03162331077647L38.243574888923355,217.2449611213059L41.030298606866225,218.7050803541294L43.72350810608618,221.8702140793941L46.50649125528013,220.85403284498824L49.289474404474085,209.6558829481059L51.80313660374604,217.00943734214118L54.58237918419108,211.61206808830588L57.27558868341104,217.2489697422706L60.05857183260499,209.95975908554118L62.751781331824944,221.51479271520003L65.5347644810189,226.45664901031768L68.31774763021285,220.45202897611767L71.0109571294328,218.38899391858237L73.79768084737567,214.0261692721412L76.49089034659562,219.95537771641764L79.27387349578957,222.40127409718235L82.05685664498353,226.26833223444706L84.57051884425549,226.58182789002353L87.34976142470053,222.7662132596118L90.04297092392048,231.44785518624707L92.82595407311443,231.8230531078941L95.51916357233439,232.2767752519412L98.30214672152835,234.73401140011765L101.08512987072228,231.58886083671177L103.77833936994226,224.05610722011176L106.56506308788512,227.17962305574707L109.25827258710508,225.6235946153647L112.04125573629902,230.75886378825885L114.82423888549299,227.10575446330589L117.42767473473893,230.6566399737706L120.20691731518396,227.14988731291766L122.90012681440392,234.40478611858236L125.68310996359789,237.0448259773059L128.37631946281783,234.05055417326471L131.15930261201177,235.2932408617059L133.94228576120574,234.17675182694117L136.6354952604257,230.05904653983532L139.42221897836856,224.8643716935706L142.11542847758852,225.55883225435295L144.8984116267825,232.00948373615296L147.68139477597643,229.7442322704353L150.19505697524838,226.7114676976941L152.97429955569342,226.26108312165883L155.66750905491338,227.31965765521767L158.45049220410735,230.75360204811176L161.14370170332728,234.14217213538237L163.92668485252122,235.01094909192352L166.7096680017152,229.9445061043412L169.40287750093515,223.45145540878235L172.189601218878,218.3563110748412L174.88281071809797,225.0136455123353L177.6657938672919,227.9807201305412L180.44877701648588,227.69799503218235L182.96243921575783,226.1802827943353L185.74168179620287,226.13331294827645L188.43489129542283,231.8688487846765L191.21787444461677,238.2686125704353L193.91108394383673,237.3444778490647L196.6940670930307,236.35805657902944L199.47705024222464,233.90901481464707L202.17025974144457,229.95762906779999L204.95698345938746,230.2539333537706L207.65019295860742,230.66332916145882L210.43317610780133,234.53001702107647L213.2161592569953,231.76152352300588L215.7298214562673,230.9325902827059L218.50906403671232,233.15656502022352L221.20227353593225,234.7804312676294L223.98525668512622,238.3971760028294L226.67846618434618,239.04770425411766L229.46144933354014,242.4787103820706L232.2444324827341,240.93814908954707L234.93764198195404,232.85591927998234L237.72436569989694,229.3337552213647L240.41757519911687,232.42050696102353L243.2005583483108,240.1450861947353L245.98354149750477,238.07222959134708L248.5869773467507,238.02040392840001L251.36621992719577,237.6216634764706L254.05942942641573,242.39378933041766L256.84241257560967,244.77431759957648L259.53562207482963,244.93707764331177L262.31860522402354,250.8494065209353L265.1015883732175,246.6142009749353L267.79479787243747,239.26209737135292L270.58152159038036,238.0893982323353L273.2747310896003,242.527790838L276.05771423879423,243.00713819495294L278.8406973879882,247.32509229365294L281.35435958726015,244.94230622128237L284.1336021677052,241.33478303728236L286.82681166692515,249.3346638996L289.6097948161191,253.12485971874708L292.303004315339,250.2239099399294L295.085987464533,251.84239840831765L297.86897061372696,250.82801727859413L300.5621801129469,245.32283126445884L303.3489038308898,246.90453621543531L306.04211333010977,245.37442275100588L308.82509647930374,247.12317216589412L311.60807962849765,246.7930794207353L314.1217418277696,246.48539394298234L316.9009844082147,248.7849757579412L319.5941939074346,250.04697482482942L322.37717705662857,252.56464681888235L325.0703865558485,256.2197466579706L327.85336970504244,255.78745937544704L330.6363528542364,253.49977033124117L333.32956235345637,251.7692897928353L336.11628607139926,247.76002017195884L338.8094955706192,251.493176868L341.5924787198132,253.06418286741177L344.3754618690071,254.03843308651764L346.88912406827905,250.46099409301763L349.6683666487241,248.54734153552943L352.36157614794405,250.8937332725647L355.144559297138,251.56522714644706L357.837768796358,249.25889583225882L360.62075194555194,256.80450041654115L363.40373509474585,250.07482292772355L366.0969445939658,243.30299675834118L368.8836683119087,243.0248535930353L371.57687781112867,243.2782691912118L374.35986096032264,248.43631739881766L377.14284410951655,249.59695502498823L379.74627995876256,249.1325069898353L382.52552253920754,245.4910262824059L385.2187320384275,244.44347385524117L388.00171518762147,247.2775490518059L390.69492468684143,249.8657987539412L393.4779078360354,248.4395670191294L396.2608909852293,255.56639226352942L398.95410048444927,250.49281081311176L401.7408242023921,248.0767158359647L404.43403370161207,245.97477345451765L407.21701685080603,251.94310933727647L410,250.01579406679411" data-legend="c++" style="stroke: rgb(255, 127, 14); fill: none;"></path><path class="line" d="M2.782983149193953,90.62596491822353L5.476192648413908,56.8366773381706L8.262916366356778,56.5099288123059L10.956125865576732,64.28276228525294L13.739109014770683,33.25256876205884L16.52209216396464,36.67152811538824L19.035754363236595,24.55326290848234L21.81499694368163,22.857373620352973L24.50820644290159,54.362777717664756L27.29118959209554,55.49331732123534L29.984399091315495,57.7822347995824L32.76738224050945,57.45361670017061L35.5503653897034,65.19853570478827L38.243574888923355,68.5896692575059L41.030298606866225,83.3215089916412L43.72350810608618,88.41813101112356L46.50649125528013,97.80400594881178L49.289474404474085,97.64822267689414L51.80313660374604,94.73440752448235L54.58237918419108,94.6489212412765L57.27558868341104,97.17281555168825L60.05857183260499,104.11627701977648L62.751781331824944,104.88151331389415L65.5347644810189,105.82659604127647L68.31774763021285,114.2140020288353L71.0109571294328,112.43932719598237L73.79768084737567,113.50252901680591L76.49089034659562,118.58592935599412L79.27387349578957,122.85319429612943L82.05685664498353,124.05331717662355L84.57051884425549,124.48138902029999L87.34976142470053,128.025607505153L90.04297092392048,123.09522464772357L92.82595407311443,125.54774946416472L95.51916357233439,131.05226154208236L98.30214672152835,133.73340922402943L101.08512987072228,138.6585317250706L103.77833936994226,139.02684862200002L106.56506308788512,139.1106040246765L109.25827258710508,141.10882469377063L112.04125573629902,140.76972454642944L114.82423888549299,146.3183196213706L117.42767473473893,146.49270671791766L120.20691731518396,147.29311029624708L122.90012681440392,147.63709943260588L125.68310996359789,146.81133057891176L128.37631946281783,146.23438269224118L131.15930261201177,150.2450615065059L133.94228576120574,148.86767942361178L136.6354952604257,149.53888852552944L139.42221897836856,153.48672161082357L142.11542847758852,156.5489381751L144.8984116267825,156.38324789850003L147.68139477597643,155.41365316487648L150.19505697524838,154.76880159792356L152.97429955569342,156.4868461762765L155.66750905491338,156.7619888602235L158.45049220410735,156.88556799238236L161.14370170332728,157.91783432911762L163.92668485252122,155.97413717975292L166.7096680017152,153.03795782465295L169.40287750093515,154.10477564085883L172.189601218878,153.60545451455297L174.88281071809797,154.3874586370412L177.6657938672919,156.37244523047647L180.44877701648588,157.75223561705297L182.96243921575783,162.19129910694707L185.74168179620287,160.6603615953706L188.43489129542283,160.45571525202354L191.21787444461677,163.7741956723059L193.91108394383673,163.21190664139414L196.6940670930307,164.60562622282944L199.47705024222464,168.58380866587058L202.17025974144457,171.28232125242354L204.95698345938746,173.71710808785883L207.65019295860742,173.4895892593059L210.43317610780133,174.41996266166473L213.2161592569953,175.60409627128237L215.7298214562673,175.99938590172354L218.50906403671232,177.47547969638822L221.20227353593225,172.04105675352355L223.98525668512622,171.97514761761175L226.67846618434618,171.6120863632941L229.46144933354014,170.41102126667647L232.2444324827341,170.94741271600589L234.93764198195404,178.05995655010588L237.72436569989694,176.5181501404059L240.41757519911687,174.84479404175295L243.2005583483108,178.59514863954706L245.98354149750477,179.68749656454708L248.5869773467507,179.84464156939413L251.36621992719577,175.97432308404706L254.05942942641573,173.0956931294294L256.84241257560967,173.81669006430002L259.53562207482963,179.07454909552942L262.31860522402354,175.30384862975296L265.1015883732175,184.63651156122356L267.79479787243747,183.58568662840588L270.58152159038036,181.56806360216473L273.2747310896003,182.5677495860118L276.05771423879423,182.0296059670941L278.8406973879882,182.9717300158059L281.35435958726015,185.08317201044116L284.1336021677052,189.3505505589353L286.82681166692515,185.46430512342351L289.6097948161191,186.9769441611706L292.303004315339,188.88947530921766L295.085987464533,189.93837337665883L297.86897061372696,191.33233180374708L300.5621801129469,192.72651098528826L303.3489038308898,196.5033120203118L306.04211333010977,194.37016036552942L308.82509647930374,195.46674950629412L311.60807962849765,199.9770315906706L314.1217418277696,198.88826836341178L316.9009844082147,198.4352181786353L319.5941939074346,194.22962172607058L322.37717705662857,198.20779268721176L325.0703865558485,194.6572537509706L327.85336970504244,192.7197356905412L330.6363528542364,196.15030805172353L333.32956235345637,195.9319455378353L336.11628607139926,198.54346178198824L338.8094955706192,197.62952494282942L341.5924787198132,194.7510665970353L344.3754618690071,197.56270297671176L346.88912406827905,200.19476968293532L349.6683666487241,193.45089093610588L352.36157614794405,192.95607919242354L355.144559297138,199.4649085961647L357.837768796358,199.6680642087L360.62075194555194,199.09821513017647L363.40373509474585,197.1541352311059L366.0969445939658,201.43300587758824L368.8836683119087,203.3977934578059L371.57687781112867,202.72249997765294L374.35986096032264,204.87723653537648L377.14284410951655,205.16253076042943L379.74627995876256,213.38693248268825L382.52552253920754,219.99982823366472L385.2187320384275,222.09698092051764L388.00171518762147,222.63741408601766L390.69492468684143,220.5773443814647L393.4779078360354,219.0487042803353L396.2608909852293,223.48826177264118L398.95410048444927,226.49059008591178L401.7408242023921,225.62016756961765L404.43403370161207,227.37174733272354L407.21701685080603,226.3678132407706L410,225.34492635682943" data-legend="c#" style="stroke: rgb(44, 160, 44); fill: none;"></path><path class="line" d="M2.782983149193953,155.84914918005884L5.476192648413908,159.11190400547648L8.262916366356778,165.39902585239412L10.956125865576732,177.49198039872354L13.739109014770683,170.88885897608824L16.52209216396464,177.65354075514708L19.035754363236595,174.64647227239413L21.81499694368163,171.83093492121176L24.50820644290159,174.41831549232353L27.29118959209554,166.85030211672353L29.984399091315495,175.8688902931588L32.76738224050945,180.7131092229706L35.5503653897034,177.8795049013765L38.243574888923355,177.2638410946588L41.030298606866225,172.20457139332945L43.72350810608618,173.2393702494353L46.50649125528013,152.54564440085298L49.289474404474085,158.07601814025884L51.80313660374604,148.7462983034647L54.58237918419108,161.95153927524706L57.27558868341104,157.2963439380353L60.05857183260499,163.3147085905765L62.751781331824944,168.01409172855884L65.5347644810189,168.66462224701766L68.31774763021285,163.01038688010001L71.0109571294328,160.1152864405412L73.79768084737567,157.25388270968827L76.49089034659562,155.13913003552943L79.27387349578957,154.97906681989414L82.05685664498353,153.00711014488232L84.57051884425549,151.03839290315295L87.34976142470053,153.68374965804708L90.04297092392048,148.74050436305293L92.82595407311443,158.62705406050588L95.51916357233439,156.41551441295294L98.30214672152835,156.45112062495886L101.08512987072228,155.4320835766588L103.77833936994226,150.53614121322352L106.56506308788512,143.27964765905296L109.25827258710508,142.9320263836059L112.04125573629902,145.46996863462942L114.82423888549299,143.36372615629415L117.42767473473893,135.84992219530588L120.20691731518396,134.80177721549998L122.90012681440392,139.58892964602353L125.68310996359789,149.6378894125765L128.37631946281783,147.03271152388234L131.15930261201177,146.39973145318237L133.94228576120574,144.20715239121176L136.6354952604257,140.29538242348235L139.42221897836856,136.87502169215296L142.11542847758852,137.17957666604119L144.8984116267825,145.56504137421177L147.68139477597643,141.23284652971765L150.19505697524838,137.51724391072946L152.97429955569342,132.20318158681766L155.66750905491338,137.36075261514708L158.45049220410735,143.96954632055295L161.14370170332728,147.5413277530059L163.92668485252122,143.23362719968236L166.7096680017152,126.08124306326474L169.40287750093515,120.05872584455295L172.189601218878,111.60841301059415L174.88281071809797,113.1630866149059L177.6657938672919,124.90254200347061L180.44877701648588,118.25930716994117L182.96243921575783,112.7232519647471L185.74168179620287,109.79033487622942L188.43489129542283,119.51098463472357L191.21787444461677,126.68978096645293L193.91108394383673,126.35981943573535L196.6940670930307,129.4637826979941L199.47705024222464,121.75429341462353L202.17025974144457,116.46077494341176L204.95698345938746,110.1728120736353L207.65019295860742,113.03902605531178L210.43317610780133,123.32481806790003L213.2161592569953,123.28442617120587L215.7298214562673,115.10855803136471L218.50906403671232,114.52393418694706L221.20227353593225,122.65657418405297L223.98525668512622,131.19581342228824L226.67846618434618,130.0644191351471L229.46144933354014,132.64313647337647L232.2444324827341,130.61224693298823L234.93764198195404,123.18788831645296L237.72436569989694,122.69757593488234L240.41757519911687,129.50392011781767L243.2005583483108,136.6702548479647L245.98354149750477,131.4795730388824L248.5869773467507,124.33684591157649L251.36621992719577,123.79383382203534L254.05942942641573,139.93274274884118L256.84241257560967,146.30506542285883L259.53562207482963,149.63934338394708L262.31860522402354,151.2666256643647L265.1015883732175,147.61572450675882L267.79479787243747,144.15879492540003L270.58152159038036,140.87960417812943L273.2747310896003,148.02305025750005L276.05771423879423,153.0703093083706L278.8406973879882,151.7851787209765L281.35435958726015,146.9187815168118L284.1336021677052,141.06027522471177L286.82681166692515,143.91377167865295L289.6097948161191,154.00772972627647L292.303004315339,159.76600949474118L295.085987464533,161.89406530838824L297.86897061372696,159.82364497288236L300.5621801129469,153.27404251344706L303.3489038308898,150.46970278468237L306.04211333010977,153.17770379276473L308.82509647930374,162.79317460671177L311.60807962849765,159.8772100315941L314.1217418277696,160.1313440536412L316.9009844082147,151.84225129972944L319.5941939074346,156.6320555638059L322.37717705662857,163.5541445947765L325.0703865558485,168.38017155638823L327.85336970504244,172.04529137004704L330.6363528542364,166.4103571380353L333.32956235345637,160.13536929822354L336.11628607139926,159.35754863361177L338.8094955706192,157.8225139861588L341.5924787198132,167.1697353539647L344.3754618690071,165.02579426197062L346.88912406827905,165.28828153494706L349.6683666487241,169.23991652825296L352.36157614794405,167.93967916145297L355.144559297138,172.68424911102352L357.837768796358,171.14600010330003L360.62075194555194,180.75243606294706L363.40373509474585,172.68431467644706L366.0969445939658,168.42192175332355L368.8836683119087,175.70804026612942L371.57687781112867,178.09120911555885L374.35986096032264,178.46568375164117L377.14284410951655,176.12665869764118L379.74627995876256,173.52291447471177L382.52552253920754,177.4232472855706L385.2187320384275,184.47959036195294L388.00171518762147,188.8296613372588L390.69492468684143,189.1017067230353L393.4779078360354,188.76782229822354L396.2608909852293,187.18684262189998L398.95410048444927,187.179126834L401.7408242023921,187.3798117481647L404.43403370161207,195.41753212411766L407.21701685080603,198.08552830528234L410,197.5687844993294" data-legend="java" style="stroke: rgb(214, 39, 40); fill: none;"></path><path class="line" d="M2.782983149193953,218.91514641379416L5.476192648413908,211.4103472714412L8.262916366356778,218.50880479581176L10.956125865576732,207.45478519277646L13.739109014770683,211.15897159780587L16.52209216396464,203.98638794361176L19.035754363236595,212.45288716731176L21.81499694368163,212.27019665401764L24.50820644290159,201.01289664494118L27.29118959209554,201.93279110488237L29.984399091315495,203.72832925791175L32.76738224050945,198.99796109391178L35.5503653897034,205.33504023935296L38.243574888923355,199.85121405088236L41.030298606866225,196.9585736759471L43.72350810608618,191.42881377497648L46.50649125528013,196.3310445211059L49.289474404474085,195.21352080190587L51.80313660374604,198.47261084682356L54.58237918419108,193.36652712338827L57.27558868341104,189.6994735061294L60.05857183260499,189.4728960607765L62.751781331824944,186.8692214816294L65.5347644810189,188.4304432673647L68.31774763021285,183.98528952425295L71.0109571294328,185.51094034387057L73.79768084737567,184.1621118883059L76.49089034659562,173.76009060501178L79.27387349578957,179.6776327215353L82.05685664498353,180.48541440206472L84.57051884425549,181.07309967541767L87.34976142470053,172.56147301821176L90.04297092392048,170.9440569314647L92.82595407311443,162.6815908549765L95.51916357233439,157.4173892664706L98.30214672152835,153.00304387637647L101.08512987072228,157.90999464564703L103.77833936994226,159.7958902525059L106.56506308788512,159.0798363745059L109.25827258710508,157.79026819240588L112.04125573629902,153.8513100346059L114.82423888549299,157.36592996901177L117.42767473473893,158.2989260703353L120.20691731518396,153.47707431315882L122.90012681440392,148.42613568619416L125.68310996359789,147.92031538447063L128.37631946281783,146.4464387881412L131.15930261201177,144.2703955930412L133.94228576120574,150.42118843440002L136.6354952604257,153.1204516315765L139.42221897836856,152.09842392308823L142.11542847758852,146.30149894429417L144.8984116267825,144.84532701084706L147.68139477597643,142.18209236163528L150.19505697524838,143.8999124167412L152.97429955569342,141.54702361635887L155.66750905491338,139.97164108138236L158.45049220410735,136.46776018101176L161.14370170332728,131.26680684171183L163.92668485252122,124.75573772534119L166.7096680017152,110.59977802441767L169.40287750093515,110.23277729574707L172.189601218878,114.2088490170353L174.88281071809797,107.01194550892944L177.6657938672919,102.02637904623532L180.44877701648588,100.65787126826476L182.96243921575783,106.91147864881768L185.74168179620287,104.80485470952357L188.43489129542283,101.03982805614709L191.21787444461677,100.53425288887058L193.91108394383673,98.73320742674122L196.6940670930307,99.90532365451767L199.47705024222464,106.59824998219412L202.17025974144457,106.16704062806471L204.95698345938746,108.7734381874412L207.65019295860742,106.03026510411178L210.43317610780133,101.98100688515294L213.2161592569953,103.06522890382942L215.7298214562673,107.93889846432353L218.50906403671232,104.33222363152944L221.20227353593225,88.04832563043533L223.98525668512622,86.11597589832354L226.67846618434618,81.94275392786469L229.46144933354014,83.11308580032355L232.2444324827341,86.1388626580235L234.93764198195404,92.02268451384708L237.72436569989694,87.87191320251179L240.41757519911687,82.75449750284119L243.2005583483108,79.04924517555887L245.98354149750477,87.82294487341767L248.5869773467507,87.49601199148236L251.36621992719577,88.0111219707706L254.05942942641573,83.96733397821177L256.84241257560967,86.20170885684706L259.53562207482963,76.68423625856468L262.31860522402354,77.90271234838238L265.1015883732175,87.80414497390589L267.79479787243747,92.37739998229412L270.58152159038036,91.53380978560591L273.2747310896003,82.67087954181176L276.05771423879423,84.29449531868826L278.8406973879882,84.6391425238765L281.35435958726015,90.51950879382355L284.1336021677052,88.1799345442765L286.82681166692515,86.27885321290586L289.6097948161191,84.3783449288118L292.303004315339,85.87375015503531L295.085987464533,85.62196967899413L297.86897061372696,91.40854362285884L300.5621801129469,91.9046978378118L303.3489038308898,95.42722992178238L306.04211333010977,91.84780037747649L308.82509647930374,89.69090465308236L311.60807962849765,99.53575151048824L314.1217418277696,102.5105211087706L316.9009844082147,103.00397219465296L319.5941939074346,107.76265620060002L322.37717705662857,101.50288857307058L325.0703865558485,100.91259093444705L327.85336970504244,98.46628040431767L330.6363528542364,101.97995416477062L333.32956235345637,105.81492295378234L336.11628607139926,106.71444594716473L338.8094955706192,106.61713800345882L341.5924787198132,108.21463982190002L344.3754618690071,108.0771087142765L346.88912406827905,107.27607822081177L349.6683666487241,111.29783778532942L352.36157614794405,109.16931790727651L355.144559297138,104.74772957925884L357.837768796358,108.06880977310587L360.62075194555194,100.91720257964118L363.40373509474585,105.045425427353L366.0969445939658,112.96050287507649L368.8836683119087,110.46675869924118L371.57687781112867,107.45736031983532L374.35986096032264,105.17695498169999L377.14284410951655,106.49682733563532L379.74627995876256,102.09464246043532L382.52552253920754,103.05915847378236L385.2187320384275,101.74833116010001L388.00171518762147,100.24971668313532L390.69492468684143,91.98356822302941L393.4779078360354,90.71399771022354L396.2608909852293,95.16526018462946L398.95410048444927,99.60232842412944L401.7408242023921,101.33084711151176L404.43403370161207,93.25046609131766L407.21701685080603,92.33528478081178L410,99.67769395918239" data-legend="javascript" style="stroke: rgb(148, 103, 189); fill: none;"></path><path class="line" d="M2.782983149193953,283.3769705480647L5.476192648413908,284.48153669445884L8.262916366356778,286.37130011241175L10.956125865576732,280.2215968354588L13.739109014770683,283.3983936824294L16.52209216396464,283.28877005348824L19.035754363236595,287.9786054020941L21.81499694368163,286.5480968202882L24.50820644290159,286.4609405041235L27.29118959209554,284.442774183L29.984399091315495,285.7680578069647L32.76738224050945,286.34078029881175L35.5503653897034,286.5149629970647L38.243574888923355,286.18299528492355L41.030298606866225,285.05506030415296L43.72350810608618,287.65379739975884L46.50649125528013,288.0549314938588L49.289474404474085,286.19246695912943L51.80313660374604,286.6670899336588L54.58237918419108,287.04353608524707L57.27558868341104,290.1901917868941L60.05857183260499,286.96869832484117L62.751781331824944,287.2450592847L65.5347644810189,284.7226094229176L68.31774763021285,286.6549720383L71.0109571294328,286.1200095315L73.79768084737567,288.1512059014765L76.49089034659562,287.2204092530118L79.27387349578957,289.35788901905295L82.05685664498353,289.6715790224118L84.57051884425549,289.39124977168234L87.34976142470053,289.7737946076529L90.04297092392048,289.7277682076294L92.82595407311443,289.8547273160294L95.51916357233439,288.4169205530824L98.30214672152835,289.85374545275295L101.08512987072228,291.3359752832824L103.77833936994226,290.32173123012353L106.56506308788512,290.15327048225294L109.25827258710508,290.8158344782941L112.04125573629902,291.40570255720587L114.82423888549299,291.2504067918706L117.42767473473893,291.96172299411177L120.20691731518396,291.7592852014059L122.90012681440392,291.53101087819414L125.68310996359789,289.9920883401177L128.37631946281783,291.67991670769413L131.15930261201177,290.4305141344235L133.94228576120574,291.1075001451L136.6354952604257,291.87942622492943L139.42221897836856,292.3882988845412L142.11542847758852,292.7364894341118L144.8984116267825,292.5554545539882L147.68139477597643,291.3294496573765L150.19505697524838,291.30284946384705L152.97429955569342,291.32726264662944L155.66750905491338,290.3842888194706L158.45049220410735,290.7455644201059L161.14370170332728,290.4232241812059L163.92668485252122,291.3057431895L166.7096680017152,292.6268590455177L169.40287750093515,292.16605661509413L172.189601218878,291.74861651804116L174.88281071809797,291.8446742702647L177.6657938672919,292.4150901097412L180.44877701648588,292.5182163127412L182.96243921575783,292.2764591459647L185.74168179620287,292.54897327814115L188.43489129542283,292.0251832106647L191.21787444461677,292.63086989018825L193.91108394383673,292.697329029L196.6940670930307,292.6238847180529L199.47705024222464,292.76764243224704L202.17025974144457,293.46802757945295L204.95698345938746,293.04553583828823L207.65019295860742,293.5487541244765L210.43317610780133,293.71300619181176L213.2161592569953,294.0488478141882L215.7298214562673,294.0144064473L218.50906403671232,294.5214889230529L221.20227353593225,294.8869842269294L223.98525668512622,294.4074594871059L226.67846618434618,294.6410581990765L229.46144933354014,294.4608404868706L232.2444324827341,295.16376875038236L234.93764198195404,295.0911950054647L237.72436569989694,295.28361024711177L240.41757519911687,294.98268787418823L243.2005583483108,295.50279825887645L245.98354149750477,295.2225533175353L248.5869773467507,295.8527646328059L251.36621992719577,295.51475213366473L254.05942942641573,295.35887462867646L256.84241257560967,295.7199855147882L259.53562207482963,295.7303882500412L262.31860522402354,295.48018029711176L265.1015883732175,295.1599362949588L267.79479787243747,295.83111590174116L270.58152159038036,296.1838711041706L273.2747310896003,296.21893360777057L276.05771423879423,296.609005221L278.8406973879882,295.83637706581766L281.35435958726015,296.3283102577941L284.1336021677052,296.30604285589413L286.82681166692515,296.5962504727588L289.6097948161191,296.8177974569647L292.303004315339,296.6947884532765L295.085987464533,296.39043585822355L297.86897061372696,296.5880217255L300.5621801129469,296.47615110654704L303.3489038308898,297.1584191829882L306.04211333010977,297.0393304156235L308.82509647930374,297.2485410610941L311.60807962849765,297.30421367671767L314.1217418277696,297.01553158528236L316.9009844082147,297.2070506454882L319.5941939074346,297.4077970772647L322.37717705662857,297.2198637848647L325.0703865558485,297.2204785614176L327.85336970504244,297.40586820314115L330.6363528542364,297.45086135025883L333.32956235345637,296.8997706937588L336.11628607139926,297.1662834364765L338.8094955706192,297.0329344278529L341.5924787198132,296.8376577109412L344.3754618690071,296.8954719974118L346.88912406827905,297.42167985271766L349.6683666487241,297.6055080256059L352.36157614794405,297.3845957773588L355.144559297138,296.90841875403527L357.837768796358,297.1712685393529L360.62075194555194,297.4606125019941L363.40373509474585,297.41945188639414L366.0969445939658,297.5638006419706L368.8836683119087,297.30060898261763L371.57687781112867,297.85348227781765L374.35986096032264,297.92921800732944L377.14284410951655,297.7250748931588L379.74627995876256,297.8621819995765L382.52552253920754,298.1561957191588L385.2187320384275,298.2767629826471L388.00171518762147,298.2616120996412L390.69492468684143,298.4068664954294L393.4779078360354,298.04802597778234L396.2608909852293,298.24990271415885L398.95410048444927,298.1737440751059L401.7408242023921,298.33453616832355L404.43403370161207,298.5485429291647L407.21701685080603,298.47405262358825L410,298.5437335032353" data-legend="perl" style="stroke: rgb(140, 86, 75); fill: none;"></path><path class="line" d="M2.782983149193953,238.96429643980588L5.476192648413908,224.72934333684708L8.262916366356778,229.1869614087706L10.956125865576732,229.00438864071177L13.739109014770683,228.65796204065293L16.52209216396464,222.21682061255297L19.035754363236595,221.42537733822354L21.81499694368163,219.28858092169412L24.50820644290159,218.3511820197706L27.29118959209554,200.54712726693532L29.984399091315495,188.34244580597647L32.76738224050945,181.03962443495294L35.5503653897034,177.7176844573412L38.243574888923355,184.31933286405885L41.030298606866225,175.53595113977647L43.72350810608618,166.68928566381175L46.50649125528013,164.0160744233294L49.289474404474085,174.34351396425882L51.80313660374604,172.3850036506941L54.58237918419108,170.4353608523118L57.27558868341104,163.48301741041766L60.05857183260499,169.4639536353353L62.751781331824944,165.53315360315293L65.5347644810189,156.59325341511177L68.31774763021285,163.67763827818237L71.0109571294328,174.27343303067647L73.79768084737567,169.58682108321176L76.49089034659562,162.33243261169412L79.27387349578957,157.1518311451765L82.05685664498353,156.27884598250589L84.57051884425549,157.37905322174117L87.34976142470053,157.94466857152943L90.04297092392048,156.80650080483528L92.82595407311443,156.05501309835884L95.51916357233439,146.74830091399414L98.30214672152835,152.14514918294117L101.08512987072228,159.69478373728236L103.77833936994226,158.81934421447062L106.56506308788512,158.6256215038412L109.25827258710508,157.43244356168825L112.04125573629902,157.7909968269706L114.82423888549299,157.7370383269412L117.42767473473893,155.48288494819414L120.20691731518396,156.8501455951059L122.90012681440392,155.7904740529941L125.68310996359789,156.53523393494117L128.37631946281783,153.26965552111764L131.15930261201177,150.63335216334707L133.94228576120574,152.44342861224703L136.6354952604257,160.2126558019412L139.42221897836856,158.51331668707058L142.11542847758852,154.71670127558826L144.8984116267825,154.87634595021177L147.68139477597643,154.32549330878825L150.19505697524838,155.44173469920003L152.97429955569342,160.9161370389L155.66750905491338,160.1264264366294L158.45049220410735,157.05301857585883L161.14370170332728,155.75856128437061L163.92668485252122,150.29900773422355L166.7096680017152,147.08190899001178L169.40287750093515,152.12234742487064L172.189601218878,149.74480721267648L174.88281071809797,144.86758167409414L177.6657938672919,141.74440472781177L180.44877701648588,143.3519141913706L182.96243921575783,143.0736237256412L185.74168179620287,138.14412026066472L188.43489129542283,150.83990730402354L191.21787444461677,157.36012218937057L193.91108394383673,156.5966630878412L196.6940670930307,156.34394512372944L199.47705024222464,156.8631350781177L202.17025974144457,159.89481377745884L204.95698345938746,160.71989305392353L207.65019295860742,158.45943793378237L210.43317610780133,153.81141007681768L213.2161592569953,156.86742984878825L215.7298214562673,159.82336594230003L218.50906403671232,159.3133288348059L221.20227353593225,160.0884284631L223.98525668512622,163.57219045572353L226.67846618434618,159.68821416665295L229.46144933354014,160.08493377921178L232.2444324827341,164.55561017782944L234.93764198195404,166.98660574844118L237.72436569989694,166.7271638179412L240.41757519911687,157.7674263348L243.2005583483108,156.55983989048826L245.98354149750477,158.77792222845883L248.5869773467507,166.18782192072354L251.36621992719577,168.88997786255294L254.05942942641573,163.94470653868234L256.84241257560967,167.89793129421176L259.53562207482963,169.72158782675294L262.31860522402354,173.51353043574704L265.1015883732175,173.55722226637062L267.79479787243747,175.14648572876473L270.58152159038036,178.28984649217057L273.2747310896003,173.93157475388824L276.05771423879423,172.63141865671764L278.8406973879882,172.58298303612355L281.35435958726015,175.45381261438237L284.1336021677052,175.89897076995885L286.82681166692515,175.38653691527648L289.6097948161191,182.29840813394117L292.303004315339,183.11030302390589L295.085987464533,182.81951076368824L297.86897061372696,182.28126403372943L300.5621801129469,186.40031341692355L303.3489038308898,188.10486205002354L306.04211333010977,187.75147340211177L308.82509647930374,187.1679943195765L311.60807962849765,193.4002425433059L314.1217418277696,198.23991832849413L316.9009844082147,201.72104094866472L319.5941939074346,198.95720492534122L322.37717705662857,202.24533490837058L325.0703865558485,204.0786035267647L327.85336970504244,203.74760332918237L330.6363528542364,204.40114329485294L333.32956235345637,208.14463455494115L336.11628607139926,214.46681468917058L338.8094955706192,214.9754467492412L341.5924787198132,213.1544720988706L344.3754618690071,209.89592554955294L346.88912406827905,212.76683501654117L349.6683666487241,214.9087779531L352.36157614794405,216.55335854652353L355.144559297138,219.98413770974116L357.837768796358,220.2555952543059L360.62075194555194,223.39082512388825L363.40373509474585,226.07183519765294L366.0969445939658,228.39438920364705L368.8836683119087,226.27663199182942L371.57687781112867,229.28565678970588L374.35986096032264,228.11601223094118L377.14284410951655,229.95432211309412L379.74627995876256,235.50915698710588L382.52552253920754,235.79696360057648L385.2187320384275,237.9793497440647L388.00171518762147,238.9575034789412L390.69492468684143,238.17381896602942L393.4779078360354,241.26884379758823L396.2608909852293,240.77964214178826L398.95410048444927,242.8434074248412L401.7408242023921,239.2922105277L404.43403370161207,237.70922402816473L407.21701685080603,239.2547523854294L410,239.45786196522354" data-legend="php" style="stroke: rgb(227, 119, 194); fill: none;"></path><path class="line" d="M2.782983149193953,231.3506951641059L5.476192648413908,237.68176152887648L8.262916366356778,236.49306856501767L10.956125865576732,234.90838958535883L13.739109014770683,229.21882711895296L16.52209216396464,236.19348565874117L19.035754363236595,233.44677193614706L21.81499694368163,235.74836307328235L24.50820644290159,230.9922426715412L27.29118959209554,234.1809676972412L29.984399091315495,236.258482842L32.76738224050945,238.07094812761767L35.5503653897034,237.1057874182941L38.243574888923355,230.37601524771176L41.030298606866225,227.91264381998823L43.72350810608618,225.07457200616471L46.50649125528013,222.91079960763528L49.289474404474085,226.00273241027645L51.80313660374604,229.5260467921765L54.58237918419108,235.53715487885296L57.27558868341104,231.29716199172353L60.05857183260499,229.65008777809413L62.751781331824944,224.2292308994647L65.5347644810189,230.4990242542588L68.31774763021285,234.6673848483706L71.0109571294328,225.73231552918236L73.79768084737567,233.49386538241765L76.49089034659562,236.63771773344706L79.27387349578957,235.61522856520588L82.05685664498353,235.5275584938706L84.57051884425549,234.11685081709413L87.34976142470053,238.04994414492353L90.04297092392048,237.89006241L92.82595407311443,237.9316503929647L95.51916357233439,235.56362784158824L98.30214672152835,236.76326230955294L101.08512987072228,238.97060989537061L103.77833936994226,236.73376739255295L106.56506308788512,237.10746237181766L109.25827258710508,238.2326530311L112.04125573629902,235.88501996209413L114.82423888549299,235.82680087468236L117.42767473473893,233.27436834082943L120.20691731518396,232.47001600152356L122.90012681440392,232.87931602831765L125.68310996359789,228.57867368122942L128.37631946281783,228.52462179172943L131.15930261201177,226.47528529969412L133.94228576120574,229.5831863898353L136.6354952604257,227.4349309968L139.42221897836856,223.42820167178826L142.11542847758852,224.56418936604706L144.8984116267825,226.01561255377058L147.68139477597643,222.09238477178826L150.19505697524838,222.14367937388823L152.97429955569342,218.0013332613L155.66750905491338,216.9822374677412L158.45049220410735,215.10255417958234L161.14370170332728,213.66906474820587L163.92668485252122,217.49793537338823L166.7096680017152,214.9531631520706L169.40287750093515,208.82745596041767L172.189601218878,204.79403713357055L174.88281071809797,209.53451746057058L177.6657938672919,207.9162048050294L180.44877701648588,206.80157032971175L182.96243921575783,202.77175138298824L185.74168179620287,202.10329854476473L188.43489129542283,207.0938847063706L191.21787444461677,202.98578195624117L193.91108394383673,200.92078743981176L196.6940670930307,201.35660763495883L199.47705024222464,206.46859933697647L202.17025974144457,201.94885843815882L204.95698345938746,198.3121642695353L207.65019295860742,196.95073387189413L210.43317610780133,196.58427981598237L213.2161592569953,192.46919893215886L215.7298214562673,191.4761542779L218.50906403671232,192.9217076901706L221.20227353593225,192.72206085061765L223.98525668512622,188.42268666402353L226.67846618434618,188.00627718575294L229.46144933354014,190.11557988748234L232.2444324827341,190.4020254336L234.93764198195404,180.90439975431178L237.72436569989694,177.3639162353294L240.41757519911687,179.99576407256473L243.2005583483108,178.75191384185297L245.98354149750477,174.89120393855296L248.5869773467507,175.89992512671176L251.36621992719577,176.46165383814707L254.05942942641573,176.78046539392943L256.84241257560967,175.32047893748825L259.53562207482963,170.8869406808647L262.31860522402354,173.49396411668823L265.1015883732175,171.80567886990002L267.79479787243747,162.8528421105353L270.58152159038036,155.81934283418823L273.2747310896003,156.6921039278294L276.05771423879423,156.02862522834707L278.8406973879882,149.70336725389416L281.35435958726015,148.61340755168828L284.1336021677052,144.04730256497643L286.82681166692515,145.42019303805884L289.6097948161191,139.93221941835884L292.303004315339,132.32483698249416L295.085987464533,134.70201544025295L297.86897061372696,130.22391061715294L300.5621801129469,122.36455489014708L303.3489038308898,120.92778666112943L306.04211333010977,116.91561847002359L308.82509647930374,119.5464530587941L311.60807962849765,109.9005851328177L314.1217418277696,115.4363567256353L316.9009844082147,113.75956539518822L319.5941939074346,113.03205230585294L322.37717705662857,105.78268332749997L325.0703865558485,99.57306253030589L327.85336970504244,99.6454312210765L330.6363528542364,101.49968166554117L333.32956235345637,97.5882430447059L336.11628607139926,84.59011495325296L338.8094955706192,86.72034534317649L341.5924787198132,96.37368899512944L344.3754618690071,85.42375594530003L346.88912406827905,78.78233505455296L349.6683666487241,68.92574067305296L352.36157614794405,76.38880309877649L355.144559297138,72.55354175200591L357.837768796358,65.67305028804708L360.62075194555194,64.30338079713528L363.40373509474585,78.96762514362354L366.0969445939658,60.42485451772944L368.8836683119087,51.955958735717644L371.57687781112867,55.887272044305945L374.35986096032264,56.68917077897652L377.14284410951655,53.40301072884708L379.74627995876256,43.89149944879415L382.52552253920754,40.05580258895293L385.2187320384275,28.80061115355886L388.00171518762147,28.33580926281178L390.69492468684143,27.016123951199972L393.4779078360354,33.30775651771768L396.2608909852293,36.74135378583537L398.95410048444927,23.097858793200032L401.7408242023921,16.174484005570605L404.43403370161207,14.838544790576464L407.21701685080603,19.528781875941206L410,20.975056082329445" data-legend="python" style="stroke: rgb(127, 127, 127); fill: none;"></path><path class="line" d="M2.782983149193953,263.32782052205295L5.476192648413908,269.5740365111647L8.262916366356778,277.5196702885059L10.956125865576732,276.2363961978353L13.739109014770683,276.5558397272118L16.52209216396464,270.9325879112118L19.035754363236595,271.2531868310647L21.81499694368163,270.08831466871766L24.50820644290159,272.2311126666353L27.29118959209554,272.7276162802941L29.984399091315495,272.52520812155296L32.76738224050945,273.60668703155295L35.5503653897034,274.27054939838825L38.243574888923355,275.8447399839L41.030298606866225,269.7399673031294L43.72350810608618,272.9985721758176L46.50649125528013,272.8665000158294L49.289474404474085,272.70234847092354L51.80313660374604,276.32728212711174L54.58237918419108,273.2706374580353L57.27558868341104,273.47591925651176L60.05857183260499,272.8222485845647L62.751781331824944,273.3809932897941L65.5347644810189,272.2609422916235L68.31774763021285,272.8167582606353L71.0109571294328,274.2427431385941L73.79768084737567,276.3024118029353L76.49089034659562,273.9306552027353L79.27387349578957,273.3060382894412L82.05685664498353,273.2487481512L84.57051884425549,271.21234830425294L87.34976142470053,272.65601601612354L90.04297092392048,272.3779334105294L92.82595407311443,272.1540843057882L95.51916357233439,272.1760018748647L98.30214672152835,269.31376673514706L101.08512987072228,273.14152337814704L103.77833936994226,271.8022331515412L106.56506308788512,271.75756822011175L109.25827258710508,271.2547546657941L112.04125573629902,270.9771335913882L114.82423888549299,270.75380671535294L117.42767473473893,270.9802335066706L120.20691731518396,272.9605830568588L122.90012681440392,273.9749542359L125.68310996359789,274.4257284475059L128.37631946281783,274.29131684341763L131.15930261201177,274.18493407201765L133.94228576120574,273.75105464512944L136.6354952604257,273.2623902777L139.42221897836856,274.47207786277056L142.11542847758852,275.05540335388235L144.8984116267825,274.0453007712706L147.68139477597643,274.2661770204706L150.19505697524838,273.87796052331174L152.97429955569342,274.5599704301118L155.66750905491338,275.1116526287294L158.45049220410735,275.1503334127235L161.14370170332728,275.5282388262706L163.92668485252122,274.18697977981765L166.7096680017152,274.47103218647646L169.40287750093515,273.2707384018412L172.189601218878,274.21567682848234L174.88281071809797,273.8603154387706L177.6657938672919,274.09734590428235L180.44877701648588,275.4518640624706L182.96243921575783,274.90911315511767L185.74168179620287,275.0725991664882L188.43489129542283,273.16379092972943L191.21787444461677,274.59332314124117L193.91108394383673,274.4456329596L196.6940670930307,273.27103173818824L199.47705024222464,275.7290588682L202.17025974144457,276.0289900998353L204.95698345938746,277.53580859959413L207.65019295860742,275.52622596428824L210.43317610780133,274.0634865607588L213.2161592569953,276.25847767565295L215.7298214562673,277.0086079423941L218.50906403671232,276.6019978366059L221.20227353593225,276.05658658501767L223.98525668512622,275.6587739227412L226.67846618434618,276.55122927718236L229.46144933354014,277.33536142771766L232.2444324827341,278.41146256607647L234.93764198195404,279.10903920924704L237.72436569989694,280.4876786805353L240.41757519911687,279.1185226894588L243.2005583483108,278.9640694156412L245.98354149750477,278.7983135393471L248.5869773467507,280.0650936914294L251.36621992719577,280.0194390823059L254.05942942641573,280.0197208761706L256.84241257560967,279.6313725061941L259.53562207482963,280.86209321484705L262.31860522402354,281.5880937644118L265.1015883732175,280.01789545325295L267.79479787243747,281.5189614914294L270.58152159038036,282.13726899818823L273.2747310896003,282.146790861L276.05771423879423,281.63630423832353L278.8406973879882,283.4470600421647L281.35435958726015,284.1923165184882L284.1336021677052,285.16443087670586L286.82681166692515,285.5078451500647L289.6097948161191,285.8646363527294L292.303004315339,284.92863118062354L295.085987464533,286.02296551764704L297.86897061372696,286.58247771792355L300.5621801129469,286.41697414660587L303.3489038308898,287.62333688590587L306.04211333010977,287.4966763833353L308.82509647930374,287.08589433511764L311.60807962849765,288.00839876878234L314.1217418277696,289.0500882991059L316.9009844082147,289.16773760151176L319.5941939074346,288.99376136082356L322.37717705662857,288.54491592684707L325.0703865558485,289.48470202748825L327.85336970504244,290.0951331392294L330.6363528542364,290.3699206565294L333.32956235345637,289.97961599232355L336.11628607139926,290.0997768596471L338.8094955706192,289.09838350867057L341.5924787198132,289.07446404638824L344.3754618690071,290.46812886702355L346.88912406827905,290.63430715727645L349.6683666487241,291.1276553412353L352.36157614794405,291.08651475691767L355.144559297138,290.80352414174115L357.837768796358,291.06778157029413L360.62075194555194,289.90723030129413L363.40373509474585,290.5985056162588L366.0969445939658,290.0686992677118L368.8836683119087,291.79385130714707L371.57687781112867,291.0114570383471L374.35986096032264,290.68753595108825L377.14284410951655,292.00106978557056L379.74627995876256,292.2661289984647L382.52552253920754,293.1078757012941L385.2187320384275,293.8773468185294L388.00171518762147,294.2313197535353L390.69492468684143,293.1954297770294L393.4779078360354,293.88111770235884L396.2608909852293,294.00565480537057L398.95410048444927,294.24990277362355L401.7408242023921,293.61027928632353L404.43403370161207,293.79529801775294L407.21701685080603,293.8230486338294L410,293.4146772388765" data-legend="ruby" style="stroke: rgb(188, 189, 34); fill: none;"></path><path class="line" d="M2.782983149193953,300L5.476192648413908,300L8.262916366356778,300L10.956125865576732,300L13.739109014770683,300L16.52209216396464,300L19.035754363236595,300L21.81499694368163,300L24.50820644290159,300L27.29118959209554,300L29.984399091315495,300L32.76738224050945,300L35.5503653897034,300L38.243574888923355,300L41.030298606866225,300L43.72350810608618,300L46.50649125528013,300L49.289474404474085,300L51.80313660374604,300L54.58237918419108,300L57.27558868341104,300L60.05857183260499,300L62.751781331824944,300L65.5347644810189,300L68.31774763021285,300L71.0109571294328,300L73.79768084737567,300L76.49089034659562,300L79.27387349578957,300L82.05685664498353,300L84.57051884425549,300L87.34976142470053,300L90.04297092392048,300L92.82595407311443,300L95.51916357233439,300L98.30214672152835,300L101.08512987072228,299.9826719505706L103.77833936994226,300L106.56506308788512,300L109.25827258710508,300L112.04125573629902,300L114.82423888549299,300L117.42767473473893,300L120.20691731518396,300L122.90012681440392,300L125.68310996359789,300L128.37631946281783,300L131.15930261201177,300L133.94228576120574,300L136.6354952604257,296.7257657413588L139.42221897836856,298.28856405737645L142.11542847758852,298.9530074860059L144.8984116267825,298.9204284549706L147.68139477597643,299.18966819228825L150.19505697524838,298.82746505082355L152.97429955569342,299.02947939141177L155.66750905491338,299.19338405108823L158.45049220410735,298.95064301024115L161.14370170332728,298.9203634776353L163.92668485252122,298.8898741304118L166.7096680017152,299.0836847946882L169.40287750093515,299.21469027194115L172.189601218878,299.09984907471176L174.88281071809797,298.6994121058588L177.6657938672919,298.6268697612529L180.44877701648588,298.88289553478825L182.96243921575783,298.99738413555883L185.74168179620287,298.73096868485294L188.43489129542283,298.6191659762647L191.21787444461677,298.8712967136706L193.91108394383673,298.3960026925941L196.6940670930307,298.68245085741177L199.47705024222464,298.7768807054647L202.17025974144457,298.54845057321177L204.95698345938746,298.8656590468059L207.65019295860742,298.6346569575706L210.43317610780133,298.4868591173647L213.2161592569953,298.6541563961471L215.7298214562673,298.5548800612765L218.50906403671232,298.36671305202356L221.20227353593225,297.64381549263527L223.98525668512622,297.5385277000588L226.67846618434618,297.3794683917706L229.46144933354014,297.0985354931294L232.2444324827341,297.0085167528176L234.93764198195404,296.8035688407706L237.72436569989694,295.96022312304706L240.41757519911687,294.8387485918941L243.2005583483108,293.9253484106647L245.98354149750477,292.9516171233L248.5869773467507,292.6124618406L251.36621992719577,291.48976109061175L254.05942942641573,290.0239244543647L256.84241257560967,289.3288828037647L259.53562207482963,287.10074944244116L262.31860522402354,286.61663776288236L265.1015883732175,286.0083811524353L267.79479787243747,284.8358108834647L270.58152159038036,285.69966591958234L273.2747310896003,284.62366333824707L276.05771423879423,284.3531249811353L278.8406973879882,284.21885356166473L281.35435958726015,283.7774861870471L284.1336021677052,282.69515494208827L286.82681166692515,281.7799290011647L289.6097948161191,281.30580700424116L292.303004315339,280.69321039618234L295.085987464533,279.1547670811765L297.86897061372696,279.4952173792235L300.5621801129469,280.54040714920586L303.3489038308898,278.9512532073177L306.04211333010977,278.71254100487647L308.82509647930374,278.24350411609413L311.60807962849765,277.16715463240587L314.1217418277696,276.9681368547L316.9009844082147,276.9992406098647L319.5941939074346,277.4563335981176L322.37717705662857,275.786282508L325.0703865558485,275.5201184143235L327.85336970504244,273.8003918524059L330.6363528542364,273.3756629915647L333.32956235345637,273.6591231444353L336.11628607139926,275.2909400904176L338.8094955706192,273.57834820819414L341.5924787198132,272.2046756697L344.3754618690071,270.8465417256L346.88912406827905,272.99374922641766L349.6683666487241,271.55528615915296L352.36157614794405,271.1836404706765L355.144559297138,269.29290188601175L357.837768796358,270.22202607598234L360.62075194555194,270.2269771917353L363.40373509474585,269.7336718735941L366.0969445939658,271.3251176039471L368.8836683119087,268.63907502467646L371.57687781112867,267.68149254532943L374.35986096032264,269.5316520844059L377.14284410951655,268.48127956791177L379.74627995876256,269.4627369939L382.52552253920754,269.9194201168588L385.2187320384275,269.8552639729235L388.00171518762147,269.1673986826941L390.69492468684143,267.2282537276647L393.4779078360354,267.6660054453L396.2608909852293,266.3604054636706L398.95410048444927,266.38645523378824L401.7408242023921,268.2037918148471L404.43403370161207,268.20090234095295L407.21701685080603,267.71471612502353L410,267.4588685023588" data-legend="typescript" style="stroke: rgb(23, 190, 207); fill: none;"></path></g></g><g transform="translate(20, 150)"><text transform="rotate(-90)" x="-50" y="0" dy="1em" class="axis-label y-axis-label" style="text-anchor: middle; font-weight: bold;">% of Stack Overflow questions that month</text></g><g class="legend" transform="translate(530, 30)" style="font-size: 12px;"><text class="legend-title" style="font-weight: bold;">Tag</text><g class="legend-items" transform="translate(0,20)"><text y="0em" x="1em">python</text><text y="1em" x="1em">c#</text><text y="2em" x="1em">javascript</text><text y="3em" x="1em">java</text><text y="4em" x="1em">php</text><text y="5em" x="1em">c++</text><text y="6em" x="1em">c</text><text y="7em" x="1em">ruby</text><text y="8em" x="1em">typescript</text><text y="9em" x="1em">perl</text><circle cy="-0.25em" cx="0" r="0.4em" style="fill: rgb(127, 127, 127);"></circle><circle cy="0.75em" cx="0" r="0.4em" style="fill: rgb(44, 160, 44);"></circle><circle cy="1.75em" cx="0" r="0.4em" style="fill: rgb(148, 103, 189);"></circle><circle cy="2.75em" cx="0" r="0.4em" style="fill: rgb(214, 39, 40);"></circle><circle cy="3.75em" cx="0" r="0.4em" style="fill: rgb(227, 119, 194);"></circle><circle cy="4.75em" cx="0" r="0.4em" style="fill: rgb(255, 127, 14);"></circle><circle cy="5.75em" cx="0" r="0.4em" style="fill: rgb(31, 119, 180);"></circle><circle cy="6.75em" cx="0" r="0.4em" style="fill: rgb(188, 189, 34);"></circle><circle cy="7.75em" cx="0" r="0.4em" style="fill: rgb(23, 190, 207);"></circle><circle cy="8.75em" cx="0" r="0.4em" style="fill: rgb(140, 86, 75);"></circle></g><rect class="legend-box"></rect></g></svg>
        