
            <svg id="trend-chart" width="660" height="400" title="Stack Overflow Trends Chart" version="1.1" xmlns="http://www.w3.org/2000/svg"><g></g><g class="chart-area" transform="translate(100, 20)"><g transform="translate(0,300)" fill="none" font-size="10" font-family="sans-serif" text-anchor="middle"><path class="domain" stroke="#000" d="M0.5,6V0.5H410.5V6"></path><g class="tick" opacity="1" transform="translate(13.739109014770683,0)"><line stroke="#000" y2="6" x1="0.5" x2="0.5"></line><text fill="#000" y="9" x="0.5" dy="0.71em" style="font-size: 12px;">2009</text></g><g class="tick" opacity="1" transform="translate(46.50649125528013,0)"><line stroke="#000" y2="6" x1="0.5" x2="0.5"></line><text fill="#000" y="9" x="0.5" dy="0.71em" style="font-size: 12px;">2010</text></g><g class="tick" opacity="1" transform="translate(79.27387349578957,0)"><line stroke="#000" y2="6" x1="0.5" x2="0.5"></line><text fill="#000" y="9" x="0.5" dy="0.71em" style="font-size: 12px;">2011</text></g><g class="tick" opacity="1" transform="translate(112.04125573629902,0)"><line stroke="#000" y2="6" x1="0.5" x2="0.5"></line><text fill="#000" y="9" x="0.5" dy="0.71em" style="font-size: 12px;">2012</text></g><g class="tick" opacity="1" transform="translate(144.8984116267825,0)"><line stroke="#000" y2="6" x1="0.5" x2="0.5"></line><text fill="#000" y="9" x="0.5" dy="0.71em" style="font-size: 12px;">2013</text></g><g class="tick" opacity="1" transform="translate(177.6657938672919,0)"><line stroke="#000" y2="6" x1="0.5" x2="0.5"></line><text fill="#000" y="9" x="0.5" dy="0.71em" style="font-size: 12px;">2014</text></g><g class="tick" opacity="1" transform="translate(210.43317610780133,0)"><line stroke="#000" y2="6" x1="0.5" x2="0.5"></line><text fill="#000" y="9" x="0.5" dy="0.71em" style="font-size: 12px;">2015</text></g><g class="tick" opacity="1" transform="translate(243.2005583483108,0)"><line stroke="#000" y2="6" x1="0.5" x2="0.5"></line><text fill="#000" y="9" x="0.5" dy="0.71em" style="font-size: 12px;">2016</text></g><g class="tick" opacity="1" transform="translate(276.05771423879423,0)"><line stroke="#000" y2="6" x1="0.5" x2="0.5"></line><text fill="#000" y="9" x="0.5" dy="0.71em" style="font-size: 12px;">2017</text></g><g class="tick" opacity="1" transform="translate(308.82509647930374,0)"><line stroke="#000" y2="6" x1="0.5" x2="0.5"></line><text fill="#000" y="9" x="0.5" dy="0.71em" style="font-size: 12px;">2018</text></g><g class="tick" opacity="1" transform="translate(341.5924787198132,0)"><line stroke="#000" y2="6" x1="0.5" x2="0.5"></line><text fill="#000" y="9" x="0.5" dy="0.71em" style="font-size: 12px;">2019</text></g><g class="tick" opacity="1" transform="translate(374.35986096032264,0)"><line stroke="#000" y2="6" x1="0.5" x2="0.5"></line><text fill="#000" y="9" x="0.5" dy="0.71em" style="font-size: 12px;">2020</text></g><g class="tick" opacity="1" transform="translate(407.21701685080603,0)"><line stroke="#000" y2="6" x1="0.5" x2="0.5"></line><text fill="#000" y="9" x="0.5" dy="0.71em" style="font-size: 12px;">2021</text></g></g><g class="grid-lines" transform="translate(0,300)" fill="none" font-size="10" font-family="sans-serif" text-anchor="middle"><path class="domain" stroke="#000" d="M0.5,-300V0.5H410.5V-300"></path><g class="tick" opacity="1" transform="translate(13.739109014770683,0)"><line stroke="#000" y2="-300" x1="0.5" x2="0.5" style="stroke: #ccc; fill: none;"></line></g><g class="tick" opacity="1" transform="translate(46.50649125528013,0)"><line stroke="#000" y2="-300" x1="0.5" x2="0.5" style="stroke: #ccc; fill: none;"></line></g><g class="tick" opacity="1" transform="translate(79.27387349578957,0)"><line stroke="#000" y2="-300" x1="0.5" x2="0.5" style="stroke: #ccc; fill: none;"></line></g><g class="tick" opacity="1" transform="translate(112.04125573629902,0)"><line stroke="#000" y2="-300" x1="0.5" x2="0.5" style="stroke: #ccc; fill: none;"></line></g><g class="tick" opacity="1" transform="translate(144.8984116267825,0)"><line stroke="#000" y2="-300" x1="0.5" x2="0.5" style="stroke: #ccc; fill: none;"></line></g><g class="tick" opacity="1" transform="translate(177.6657938672919,0)"><line stroke="#000" y2="-300" x1="0.5" x2="0.5" style="stroke: #ccc; fill: none;"></line></g><g class="tick" opacity="1" transform="translate(210.43317610780133,0)"><line stroke="#000" y2="-300" x1="0.5" x2="0.5" style="stroke: #ccc; fill: none;"></line></g><g class="tick" opacity="1" transform="translate(243.2005583483108,0)"><line stroke="#000" y2="-300" x1="0.5" x2="0.5" style="stroke: #ccc; fill: none;"></line></g><g class="tick" opacity="1" transform="translate(276.05771423879423,0)"><line stroke="#000" y2="-300" x1="0.5" x2="0.5" style="stroke: #ccc; fill: none;"></line></g><g class="tick" opacity="1" transform="translate(308.82509647930374,0)"><line stroke="#000" y2="-300" x1="0.5" x2="0.5" style="stroke: #ccc; fill: none;"></line></g><g class="tick" opacity="1" transform="translate(341.5924787198132,0)"><line stroke="#000" y2="-300" x1="0.5" x2="0.5" style="stroke: #ccc; fill: none;"></line></g><g class="tick" opacity="1" transform="translate(374.35986096032264,0)"><line stroke="#000" y2="-300" x1="0.5" x2="0.5" style="stroke: #ccc; fill: none;"></line></g><g class="tick" opacity="1" transform="translate(407.21701685080603,0)"><line stroke="#000" y2="-300" x1="0.5" x2="0.5" style="stroke: #ccc; fill: none;"></line></g></g><text x="205" y="360" class="axis-label x-axis-label" style="text-anchor: middle; font-weight: bold;">Year</text><g fill="none" font-size="10" font-family="sans-serif" text-anchor="end"><path class="domain" stroke="#000" d="M-6,300.5H0.5V0.5H-6"></path><g class="tick" opacity="1" transform="translate(0,300)"><line stroke="#000" x2="-6" y1="0.5" y2="0.5"></line><text fill="#000" x="-9" y="0.5" dy="0.32em" style="font-size: 12px;">0.00%</text></g><g class="tick" opacity="1" transform="translate(0,270)"><line stroke="#000" x2="-6" y1="0.5" y2="0.5"></line><text fill="#000" x="-9" y="0.5" dy="0.32em" style="font-size: 12px;">0.20%</text></g><g class="tick" opacity="1" transform="translate(0,240)"><line stroke="#000" x2="-6" y1="0.5" y2="0.5"></line><text fill="#000" x="-9" y="0.5" dy="0.32em" style="font-size: 12px;">0.40%</text></g><g class="tick" opacity="1" transform="translate(0,210)"><line stroke="#000" x2="-6" y1="0.5" y2="0.5"></line><text fill="#000" x="-9" y="0.5" dy="0.32em" style="font-size: 12px;">0.60%</text></g><g class="tick" opacity="1" transform="translate(0,180)"><line stroke="#000" x2="-6" y1="0.5" y2="0.5"></line><text fill="#000" x="-9" y="0.5" dy="0.32em" style="font-size: 12px;">0.80%</text></g><g class="tick" opacity="1" transform="translate(0,150)"><line stroke="#000" x2="-6" y1="0.5" y2="0.5"></line><text fill="#000" x="-9" y="0.5" dy="0.32em" style="font-size: 12px;">1.00%</text></g><g class="tick" opacity="1" transform="translate(0,120)"><line stroke="#000" x2="-6" y1="0.5" y2="0.5"></line><text fill="#000" x="-9" y="0.5" dy="0.32em" style="font-size: 12px;">1.20%</text></g><g class="tick" opacity="1" transform="translate(0,90)"><line stroke="#000" x2="-6" y1="0.5" y2="0.5"></line><text fill="#000" x="-9" y="0.5" dy="0.32em" style="font-size: 12px;">1.40%</text></g><g class="tick" opacity="1" transform="translate(0,60)"><line stroke="#000" x2="-6" y1="0.5" y2="0.5"></line><text fill="#000" x="-9" y="0.5" dy="0.32em" style="font-size: 12px;">1.60%</text></g><g class="tick" opacity="1" transform="translate(0,30)"><line stroke="#000" x2="-6" y1="0.5" y2="0.5"></line><text fill="#000" x="-9" y="0.5" dy="0.32em" style="font-size: 12px;">1.80%</text></g><g class="tick" opacity="1" transform="translate(0,0)"><line stroke="#000" x2="-6" y1="0.5" y2="0.5"></line><text fill="#000" x="-9" y="0.5" dy="0.32em" style="font-size: 12px;">2.00%</text></g></g><g class="grid-lines" fill="none" font-size="10" font-family="sans-serif" text-anchor="end"><path class="domain" stroke="#000" d="M410,300.5H0.5V0.5H410"></path><g class="tick" opacity="1" transform="translate(0,300)"><line stroke="#000" x2="410" y1="0.5" y2="0.5" style="stroke: #ccc; fill: none;"></line></g><g class="tick" opacity="1" transform="translate(0,270)"><line stroke="#000" x2="410" y1="0.5" y2="0.5" style="stroke: #ccc; fill: none;"></line></g><g class="tick" opacity="1" transform="translate(0,240)"><line stroke="#000" x2="410" y1="0.5" y2="0.5" style="stroke: #ccc; fill: none;"></line></g><g class="tick" opacity="1" transform="translate(0,210)"><line stroke="#000" x2="410" y1="0.5" y2="0.5" style="stroke: #ccc; fill: none;"></line></g><g class="tick" opacity="1" transform="translate(0,180)"><line stroke="#000" x2="410" y1="0.5" y2="0.5" style="stroke: #ccc; fill: none;"></line></g><g class="tick" opacity="1" transform="translate(0,150)"><line stroke="#000" x2="410" y1="0.5" y2="0.5" style="stroke: #ccc; fill: none;"></line></g><g class="tick" opacity="1" transform="translate(0,120)"><line stroke="#000" x2="410" y1="0.5" y2="0.5" style="stroke: #ccc; fill: none;"></line></g><g class="tick" opacity="1" transform="translate(0,90)"><line stroke="#000" x2="410" y1="0.5" y2="0.5" style="stroke: #ccc; fill: none;"></line></g><g class="tick" opacity="1" transform="translate(0,60)"><line stroke="#000" x2="410" y1="0.5" y2="0.5" style="stroke: #ccc; fill: none;"></line></g><g class="tick" opacity="1" transform="translate(0,30)"><line stroke="#000" x2="410" y1="0.5" y2="0.5" style="stroke: #ccc; fill: none;"></line></g><g class="tick" opacity="1" transform="translate(0,0)"><line stroke="#000" x2="410" y1="0.5" y2="0.5" style="stroke: #ccc; fill: none;"></line></g></g><g class="lines"><path class="line" d="M2.782983149193953,235.28438915655L5.476192648413908,250.1454092232L8.262916366356778,247.45222929944998L10.956125865576732,244.7975911677L13.739109014770683,238.0244088483L16.52209216396464,232.85123966955L19.035754363236595,240.02369434305L21.81499694368163,236.082571848L24.50820644290159,226.60586370225002L27.29118959209554,238.9678064103L29.984399091315495,238.81363848675L32.76738224050945,228.3027013692L35.5503653897034,212.88666096104998L38.243574888923355,222.95304994875L41.030298606866225,222.52228631370002L43.72350810608618,219.49050708975L46.50649125528013,217.29424421745L49.289474404474085,217.03577129759998L51.80313660374604,218.18286947820002L54.58237918419108,228.18924246705L57.27558868341104,229.10960894085L60.05857183260499,220.1076064782L62.751781331824944,217.38476042415002L65.5347644810189,225.59241706170002L68.31774763021285,220.8436765359L71.0109571294328,219.3764481504L73.79768084737567,219.42820013009998L76.49089034659562,225.6309444654L79.27387349578957,215.94949431510003L82.05685664498353,220.38776128455L84.57051884425549,215.79743610165002L87.34976142470053,211.81750422555L90.04297092392048,219.28708593375L92.82595407311443,217.40890688265L95.51916357233439,222.75896414355L98.30214672152835,205.7635675221L101.08512987072228,206.61914160315L103.77833936994226,213.1397175807L106.56506308788512,220.99094544285L109.25827258710508,210.6375582957L112.04125573629902,202.77035530199998L114.82423888549299,209.00708531505L117.42767473473893,212.6828939385L120.20691731518396,219.34794601455002L122.90012681440392,209.9052104448L125.68310996359789,205.39142430165L128.37631946281783,207.75559828094998L131.15930261201177,202.9022847774L133.94228576120574,211.2089246415L136.6354952604257,210.07676128995L139.42221897836856,207.22341659265L142.11542847758852,206.66716107989998L144.8984116267825,203.83941373275002L147.68139477597643,206.22724559354998L150.19505697524838,212.03438892075L152.97429955569342,213.0299963142L155.66750905491338,212.9438510394L158.45049220410735,214.31553643725L161.14370170332728,210.6100946016L163.92668485252122,206.69755191315L166.7096680017152,200.64905660385L169.40287750093515,206.79235453095L172.189601218878,200.61833700795L174.88281071809797,215.1846124107L177.6657938672919,196.78170654255L180.44877701648588,201.61501388415002L182.96243921575783,202.78874487225L185.74168179620287,212.47309729155L188.43489129542283,211.37647138875L191.21787444461677,204.42921981285L193.91108394383673,189.91198604430002L196.6940670930307,201.86958783404998L199.47705024222464,193.684343754L202.17025974144457,204.77017985925L204.95698345938746,209.97891397995L207.65019295860742,210.63829787235L210.43317610780133,202.90324138935L213.2161592569953,196.14924003660002L215.7298214562673,203.1583173957L218.50906403671232,205.91333872785L221.20227353593225,198.88915916655L223.98525668512622,195.54775303424998L226.67846618434618,195.71825688405L229.46144933354014,190.389118629L232.2444324827341,195.1534979913L234.93764198195404,199.81186085265L237.72436569989694,189.54294800235L240.41757519911687,197.48952756045L243.2005583483108,186.90370436175002L245.98354149750477,193.6334947698L248.5869773467507,200.532389967L251.36621992719577,196.0586674032L254.05942942641573,198.38748240044998L256.84241257560967,192.98999819745L259.53562207482963,197.1877490607L262.31860522402354,190.14979321664998L265.1015883732175,192.25935279269999L267.79479787243747,192.31397073195L270.58152159038036,197.8576563624L273.2747310896003,202.37176979115L276.05771423879423,202.1542040622L278.8406973879882,198.83411787735L281.35435958726015,190.6922076624L284.1336021677052,206.31188747279998L286.82681166692515,197.48230590524997L289.6097948161191,195.45117946005L292.303004315339,197.04364990365L295.085987464533,191.6779827618L297.86897061372696,200.03232785429998L300.5621801129469,197.96522996340002L303.3489038308898,199.36067939744999L306.04211333010977,200.6891101191L308.82509647930374,185.5149000378L311.60807962849765,191.6514673638L314.1217418277696,197.12846112584998L316.9009844082147,208.67055610724998L319.5941939074346,199.85491454415L322.37717705662857,195.866018199L325.0703865558485,199.32885906045001L327.85336970504244,194.52215193915L330.6363528542364,204.3272552181L333.32956235345637,199.1096805768L336.11628607139926,199.9247503998L338.8094955706192,204.2550763449L341.5924787198132,191.87404842435L344.3754618690071,200.01236960385L346.88912406827905,198.19491879945002L349.6683666487241,205.70675686319998L352.36157614794405,207.98585727015L355.144559297138,208.52441566515L357.837768796358,208.9113257244L360.62075194555194,207.05323514955L363.40373509474585,204.87632820435L366.0969445939658,202.20816021885L368.8836683119087,207.608843445L371.57687781112867,202.27307282970003L374.35986096032264,200.97786927434998L377.14284410951655,201.54833522775L379.74627995876256,194.17800897885002L382.52552253920754,209.25101288475L385.2187320384275,217.9874179875L388.00171518762147,212.3714119083L390.69492468684143,209.4164090952L393.4779078360354,208.1004562023L396.2608909852293,209.31980949450002L398.95410048444927,202.60316258835002L401.7408242023921,213.39588075285002L404.43403370161207,206.6690943795L407.21701685080603,203.69808817619997L410,201.0648948759" data-legend="git" style="stroke: rgb(31, 119, 180); fill: none;"></path><path class="line" d="M2.782983149193953,285.97828431735L5.476192648413908,285.4590776901L8.262916366356778,288.0573248409L10.956125865576732,291.21779859495L13.739109014770683,293.32570556835L16.52209216396464,291.3911845731L19.035754363236595,294.0764142561L21.81499694368163,286.50632072355L24.50820644290159,274.1652640233L27.29118959209554,287.68648725825L29.984399091315495,281.7842129847L32.76738224050945,288.43591957575L35.5503653897034,284.41129722465L38.243574888923355,285.4235499903L41.030298606866225,279.15574200315L43.72350810608618,279.97276295775L46.50649125528013,284.5346960733L49.289474404474085,277.40405153235L51.80313660374604,258.3686685684L54.58237918419108,264.39634710555L57.27558868341104,271.23709543095L60.05857183260499,269.1263292831L62.751781331824944,268.2439919949L65.5347644810189,274.8815165877L68.31774763021285,272.87478012135L71.0109571294328,270.44591207865L73.79768084737567,269.02750703925L76.49089034659562,269.64528345525L79.27387349578957,274.9356115335L82.05685664498353,274.3714026054L84.57051884425549,276.1127478303L87.34976142470053,277.63943857155L90.04297092392048,278.9966394624L92.82595407311443,280.8704453442L95.51916357233439,280.57768924305L98.30214672152835,281.90997055125L101.08512987072228,280.5579285357L103.77833936994226,280.582428333L106.56506308788512,282.07473456825L109.25827258710508,283.6337829618L112.04125573629902,282.67450480125L114.82423888549299,283.4999514705L117.42767473473893,286.177600971L120.20691731518396,285.89754547365L122.90012681440392,288.03952545615L125.68310996359789,286.66513392345L128.37631946281783,289.82130739665L131.15930261201177,286.6916508741L133.94228576120574,288.0473552403L136.6354952604257,288.7470360498L139.42221897836856,291.6582457902L142.11542847758852,291.9905072679L144.8984116267825,291.779512506L147.68139477597643,292.32500016405L150.19505697524838,292.2867592257L152.97429955569342,292.3648937229L155.66750905491338,291.2492782911L158.45049220410735,290.70091093125L161.14370170332728,294.5618308503L163.92668485252122,292.41586905915L166.7096680017152,294.47547169815L169.40287750093515,293.48767542585L172.189601218878,295.06917326475L174.88281071809797,294.6537309105L177.6657938672919,293.96569976715L180.44877701648588,295.29220261094997L182.96243921575783,295.5222155886L185.74168179620287,294.6066169107L188.43489129542283,294.4716608832L191.21787444461677,294.8340118818L193.91108394383673,294.5802823899L196.6940670930307,293.8496374041L199.47705024222464,295.57018098975L202.17025974144457,295.39490833275L204.95698345938746,295.94499612525L207.65019295860742,295.64796905235L210.43317610780133,295.0183566012L213.2161592569953,295.620751086L215.7298214562673,296.1168228744L218.50906403671232,296.2714392246L221.20227353593225,296.0269196466L223.98525668512622,296.1521812323L226.67846618434618,296.37750042405L229.46144933354014,296.4293425008L232.2444324827341,295.7620653999L234.93764198195404,296.11861930665L237.72436569989694,296.10947596335L240.41757519911687,296.67911512995L243.2005583483108,297.5015545884L245.98354149750477,297.19666590135L248.5869773467507,296.70686618415L251.36621992719577,297.1617495897L254.05942942641573,297.5294211408L256.84241257560967,297.45994635855L259.53562207482963,297.43823295015L262.31860522402354,296.09162776785L265.1015883732175,297.35713866225L267.79479787243747,298.10320845165L270.58152159038036,297.239396118L273.2747310896003,297.8573957112L276.05771423879423,297.434113743L278.8406973879882,297.7557056868L281.35435958726015,297.37421226375L284.1336021677052,298.30735117395L286.82681166692515,297.89291695935L289.6097948161191,298.21936315395L292.303004315339,297.728904042L295.085987464533,298.2102577797L297.86897061372696,297.5754109368L300.5621801129469,297.8668689192L303.3489038308898,297.4057419579L306.04211333010977,298.0241812485L308.82509647930374,298.01961523965L311.60807962849765,298.71601556595L314.1217418277696,298.25048403285L316.9009844082147,298.51042701105L319.5941939074346,298.82607203715L322.37717705662857,298.52918104815L325.0703865558485,298.29210128475L327.85336970504244,298.18635374385L330.6363528542364,298.220528817L333.32956235345637,298.7765166489L336.11628607139926,298.3875085665L338.8094955706192,297.8317597743L341.5924787198132,297.8779018851L344.3754618690071,298.96919968665L346.88912406827905,298.78245993045L349.6683666487241,297.9351844569L352.36157614794405,297.80681349945L355.144559297138,298.22592806145L357.837768796358,298.80277755615L360.62075194555194,298.0177230246L363.40373509474585,298.7875314141L366.0969445939658,298.3156420707L368.8836683119087,298.47034509015L371.57687781112867,298.28949369015L374.35986096032264,298.5589294905L377.14284410951655,298.96038368775L379.74627995876256,298.7529394998L382.52552253920754,299.2471803483L385.2187320384275,298.9874989875L388.00171518762147,298.8972912573L390.69492468684143,299.0819230653L393.4779078360354,299.22629008965L396.2608909852293,299.64369276825L398.95410048444927,299.2016652672L401.7408242023921,299.35231962105L404.43403370161207,299.34075041445L407.21701685080603,299.20044538155L410,299.45390006385" data-legend="mercurial" style="stroke: rgb(255, 127, 14); fill: none;"></path><path class="line" d="M2.782983149193953,283.82109728925L5.476192648413908,281.3045284587L8.262916366356778,291.6401273886L10.956125865576732,291.21779859495L13.739109014770683,295.2326468346L16.52209216396464,295.69559228655L19.035754363236595,297.03820712805L21.81499694368163,294.318450831L24.50820644290159,294.7156221867L27.29118959209554,291.969448212L29.984399091315495,294.8622139188L32.76738224050945,295.8369310473L35.5503653897034,298.16603496765L38.243574888923355,293.3364799956L41.030298606866225,295.2805453593L43.72350810608618,294.792918369L46.50649125528013,295.2931683702L49.289474404474085,294.941205567L51.80313660374604,294.21787063455L54.58237918419108,293.96548256025L57.27558868341104,295.9325185458L60.05857183260499,294.5835665409L62.751781331824944,295.28621756175L65.5347644810189,295.4976303318L68.31774763021285,297.04088510415L71.0109571294328,293.37988430565L73.79768084737567,296.5345462422L76.49089034659562,296.53088953785L79.27387349578957,297.55009736805L82.05685664498353,297.45531657075L84.57051884425549,295.8197308704L87.34976142470053,296.69315640855L90.04297092392048,297.7496399424L92.82595407311443,296.65991902845L95.51916357233439,298.05776892435L98.30214672152835,297.05511148515L101.08512987072228,296.3177894955L103.77833936994226,297.3319367175L106.56506308788512,297.38015351385L109.25827258710508,297.9723270927L112.04125573629902,297.5433999345L114.82423888549299,296.8455789576L117.42767473473893,296.9658148473L120.20691731518396,297.78556499175L122.90012681440392,297.093716466L125.68310996359789,296.6662834809L128.37631946281783,295.758878082L131.15930261201177,296.48659583085L133.94228576120574,296.81262806415L136.6354952604257,297.68912347455L139.42221897836856,297.76196838285L142.11542847758852,296.88519727095L144.8984116267825,296.94121395585L147.68139477597643,298.32724362555L150.19505697524838,297.83335933305L152.97429955569342,296.84064567855L155.66750905491338,297.56423210175L158.45049220410735,296.5840080972L161.14370170332728,297.53582960415L163.92668485252122,297.26618535855L166.7096680017152,298.1886792453L169.40287750093515,297.4764742275L172.189601218878,297.44957237835L174.88281071809797,297.64401701145L177.6657938672919,296.03006563635L180.44877701648588,297.36682518915L182.96243921575783,298.338886428L185.74168179620287,298.30493674335L188.43489129542283,297.7886643534L191.21787444461677,298.06275445575L193.91108394383673,296.5279934061L196.6940670930307,298.2558673236L199.47705024222464,298.19191060815L202.17025974144457,297.74089842735L204.95698345938746,298.19777605575L207.65019295860742,297.48549323025L210.43317610780133,298.0073426406L213.2161592569953,297.2294547687L215.7298214562673,297.70179312975L218.50906403671232,297.46140542955L221.20227353593225,297.5675018244L223.98525668512622,298.2364163982L226.67846618434618,297.7648406871L229.46144933354014,297.7579592448L232.2444324827341,297.711515316L234.93764198195404,298.3018959468L237.72436569989694,297.8855847627L240.41757519911687,297.553032201L243.2005583483108,297.5015545884L245.98354149750477,298.1578090209L248.5869773467507,298.50312099285L251.36621992719577,298.31239164795L254.05942942641573,298.88425470885L256.84241257560967,298.19738128665L259.53562207482963,297.8651941251L262.31860522402354,298.253706024L265.1015883732175,298.06190168565L267.79479787243747,298.36186184475L270.58152159038036,298.44716031645L273.2747310896003,298.4163359604L276.05771423879423,298.289409162L278.8406973879882,298.18730074695L281.35435958726015,298.0494148245L284.1336021677052,298.30735117395L286.82681166692515,298.70333351355L289.6097948161191,298.21936315395L292.303004315339,299.2429680141L295.085987464533,298.46593523985L297.86897061372696,297.5754109368L300.5621801129469,297.7779884574L303.3489038308898,298.6581423921L306.04211333010977,298.85610493335L308.82509647930374,297.6423990948L311.60807962849765,297.92587129875L314.1217418277696,297.46320184755L316.9009844082147,298.88282025825L319.5941939074346,298.82607203715L322.37717705662857,298.72529024175L325.0703865558485,298.5767510706L327.85336970504244,297.51816828105L330.6363528542364,297.3831306132L333.32956235345637,298.3059461292L336.11628607139926,298.1859471372L338.8094955706192,298.1741134941L341.5924787198132,298.58526792345L344.3754618690071,298.7630396241L346.88912406827905,298.5951460737L349.6683666487241,299.0167545033L352.36157614794405,299.1027873408L355.144559297138,298.78032554235L357.837768796358,298.90254609315L360.62075194555194,298.78860851505L363.40373509474585,298.23640932945L366.0969445939658,299.00920121805L368.8836683119087,298.67429907825L371.57687781112867,297.2631899043L374.35986096032264,298.4559958827L377.14284410951655,299.37623021265L379.74627995876256,298.66386374985L382.52552253920754,298.76811329715L385.2187320384275,297.2324972325L388.00171518762147,298.23566601165L390.69492468684143,298.6228845978L393.4779078360354,298.3666124115L396.2608909852293,299.1092319204L398.95410048444927,299.02425754875L401.7408242023921,298.8896907789L404.43403370161207,298.7756793411L407.21701685080603,298.8450877734L410,299.08983343965" data-legend="perforce" style="stroke: rgb(44, 160, 44); fill: none;"></path><path class="line" d="M2.782983149193953,59.47364636520004L5.476192648413908,86.0407145826L8.262916366356778,156.6878980893L10.956125865576732,138.15657410519998L13.739109014770683,165.56064073230002L16.52209216396464,170.86776859515L19.035754363236595,159.3148385823L21.81499694368163,179.97727380345L24.50820644290159,165.54194230245L27.29118959209554,188.64301520459998L29.984399091315495,189.30406352174998L32.76738224050945,202.8617244357L35.5503653897034,197.75644944375L38.243574888923355,176.30840991765L41.030298606866225,206.39748295754998L43.72350810608618,208.6757990868L46.50649125528013,205.1909628834L49.289474404474085,204.89466465825L51.80313660374604,204.59486546925L54.58237918419108,229.0944200829L57.27558868341104,231.43388405745L60.05857183260499,226.607326629L62.751781331824944,237.72845305245L65.5347644810189,239.09952606644998L68.31774763021285,239.091551727L71.0109571294328,229.07018898855L73.79768084737567,237.40524149895L76.49089034659562,240.15784452615L79.27387349578957,240.6369746844L82.05685664498353,242.74462284165L84.57051884425549,245.05932000960001L87.34976142470053,254.17659594585L90.04297092392048,256.1929908786L92.82595407311443,255.6680161944L95.51916357233439,257.4203187252L98.30214672152835,254.00364605250002L101.08512987072228,256.25533920525L103.77833936994226,257.16276174195L106.56506308788512,259.0476628212L109.25827258710508,257.56370272395L112.04125573629902,256.42767252240003L114.82423888549299,258.3859070175L117.42767473473893,265.6125682692L120.20691731518396,265.15178592255L122.90012681440392,263.67145582455L125.68310996359789,270.80124152205L128.37631946281783,267.66144537435L131.15930261201177,265.29182547975L133.94228576120574,268.1262806406L136.6354952604257,269.1548220291L139.42221897836856,268.76928606795L142.11542847758852,274.5253633938L144.8984116267825,271.992990282L147.68139477597643,271.7599365009L150.19505697524838,274.0003119963L152.97429955569342,277.53348037995L155.66750905491338,277.2661662819L158.45049220410735,278.3653846155L161.14370170332728,273.65886818115L163.92668485252122,276.10116877935L166.7096680017152,272.46792452835L169.40287750093515,278.7535410765L172.189601218878,276.7060943886L174.88281071809797,280.51783297905L177.6657938672919,276.2597925048L180.44877701648588,276.70039258245L182.96243921575783,279.2721915144L185.74168179620287,278.6576126319L188.43489129542283,279.24746546925L191.21787444461677,281.73454201065L193.91108394383673,280.692256014L196.6940670930307,278.70322205565003L199.47705024222464,280.02061221915L202.17025974144457,282.88296116085L204.95698345938746,283.779984501L207.65019295860742,285.00967117995L210.43317610780133,282.51896043675L213.2161592569953,283.9129631727L215.7298214562673,283.67480636955L218.50906403671232,285.5617433799L221.20227353593225,284.91851131125L223.98525668512622,285.4905167301L226.67846618434618,285.5870761548L229.46144933354014,284.13963761985L232.2444324827341,286.09957451145L234.93764198195404,286.17258127995L237.72436569989694,288.4975811091L240.41757519911687,287.2408107621L243.2005583483108,288.34058807865L245.98354149750477,289.50752094495L248.5869773467507,289.3721590485L251.36621992719577,291.2551203573L254.05942942641573,289.16133145605L256.84241257560967,289.0204132914L259.53562207482963,290.26528521015L262.31860522402354,289.3559224314L265.1015883732175,288.899982381L267.79479787243747,291.80930922315L270.58152159038036,291.2005751259L273.2747310896003,290.12538892935L276.05771423879423,289.8219845136L278.8406973879882,290.76386571075L281.35435958726015,290.6221866561L284.1336021677052,294.2449939911L286.82681166692515,292.13895942525L289.6097948161191,292.79266038465L292.303004315339,291.25207482855L295.085987464533,289.6876757784L297.86897061372696,290.95441772565L300.5621801129469,292.8895630638L303.3489038308898,293.20125478605L306.04211333010977,293.44860098175L308.82509647930374,291.4183327047L311.60807962849765,292.3948614285L314.1217418277696,294.83892789675L316.9009844082147,293.4831181728L319.5941939074346,294.6721730913L322.37717705662857,293.43034201455L325.0703865558485,295.44560342595L327.85336970504244,294.27269603295L330.6363528542364,294.55691167545L333.32956235345637,294.72961017945L336.11628607139926,293.04613069245L338.8094955706192,293.4952793226L341.5924787198132,295.0484377317L344.3754618690071,294.0213581826L346.88912406827905,295.03618279335L349.6683666487241,295.6737198144L352.36157614794405,296.51083965825L355.144559297138,294.56690468805L357.837768796358,296.5081012053L360.62075194555194,295.48481355585L363.40373509474585,295.37057448975L366.0969445939658,295.442325603L368.8836683119087,295.8189432465L371.57687781112867,295.55268359445L374.35986096032264,296.08852290285L377.14284410951655,295.63361148855L379.74627995876256,296.97142449945L382.52552253920754,297.9468554952L385.2187320384275,297.2999973L388.00171518762147,296.765387688L390.69492468684143,296.0216666157L393.4779078360354,297.33499919775L396.2608909852293,297.6840029931L398.95410048444927,296.5405494909L401.7408242023921,297.8719073262L404.43403370161207,296.7979305843L407.21701685080603,297.06829973235L410,296.90543369445" data-legend="svn" style="stroke: rgb(214, 39, 40); fill: none;"></path></g></g><g transform="translate(20, 150)"><text transform="rotate(-90)" x="-50" y="0" dy="1em" class="axis-label y-axis-label" style="text-anchor: middle; font-weight: bold;">% of Stack Overflow questions that month</text></g><g class="legend" transform="translate(530, 30)" style="font-size: 12px;"><text class="legend-title" style="font-weight: bold;">Tag</text><g class="legend-items" transform="translate(0,20)"><text y="0em" x="1em">svn</text><text y="1em" x="1em">git</text><text y="2em" x="1em">mercurial</text><text y="3em" x="1em">perforce</text><circle cy="-0.25em" cx="0" r="0.4em" style="fill: rgb(214, 39, 40);"></circle><circle cy="0.75em" cx="0" r="0.4em" style="fill: rgb(31, 119, 180);"></circle><circle cy="1.75em" cx="0" r="0.4em" style="fill: rgb(255, 127, 14);"></circle><circle cy="2.75em" cx="0" r="0.4em" style="fill: rgb(44, 160, 44);"></circle></g><rect class="legend-box"></rect></g></svg>
        